<svg id="svg" version="1.1" xmlns="http://www.w3.org/2000/svg" xmlns:xlink="http://www.w3.org/1999/xlink" width="400" height="211.66180758017492" viewBox="0, 0, 400,211.66180758017492"><g id="svgg"><path id="path0" d="M131.642 71.499 C 131.303 71.838,131.482 123.324,131.831 125.826 C 132.404 129.936,133.055 132.183,134.332 134.463 C 137.870 140.780,145.690 143.537,156.697 142.349 C 158.849 142.117,159.416 141.998,161.673 141.308 C 166.828 139.732,170.377 135.612,171.949 129.381 C 172.852 125.799,172.883 124.749,172.889 97.512 L 172.896 71.466 165.537 71.411 C 161.490 71.380,158.157 71.380,158.129 71.411 C 158.102 71.441,158.031 83.854,157.971 98.994 L 157.861 126.522 157.367 127.898 C 155.240 133.817,148.231 133.261,146.688 127.051 C 146.522 126.386,146.415 117.843,146.333 98.782 L 146.215 71.466 139.000 71.411 C 135.032 71.380,131.721 71.420,131.642 71.499 M106.734 72.049 C 106.552 72.500,106.075 105.530,106.084 117.085 C 106.092 127.639,104.942 130.238,100.268 130.223 C 96.181 130.210,95.016 128.302,94.973 121.546 C 94.935 115.465,95.653 116.020,87.852 116.033 C 80.042 116.046,80.830 115.342,80.873 122.270 C 80.929 131.363,82.429 135.026,87.665 138.858 C 93.304 142.984,103.493 143.806,109.899 140.651 C 114.931 138.173,118.136 134.186,119.534 128.665 L 120.064 126.574 120.064 99.073 L 120.064 71.572 113.495 71.572 L 106.926 71.572 106.734 72.049 M195.767 72.366 C 194.719 72.405,193.793 72.507,193.708 72.592 C 193.549 72.750,192.384 78.149,192.049 80.273 C 191.947 80.925,191.764 81.717,191.643 82.034 C 191.523 82.351,191.424 82.853,191.424 83.149 C 191.424 83.445,191.283 84.320,191.111 85.094 C 190.938 85.868,190.506 88.168,190.150 90.206 C 189.794 92.245,189.417 94.341,189.311 94.865 C 189.205 95.389,188.919 96.914,188.675 98.253 C 188.431 99.592,188.043 101.641,187.812 102.806 C 187.045 106.678,186.722 108.298,186.440 109.688 C 186.286 110.445,186.055 111.636,185.926 112.335 C 185.797 113.033,185.558 114.272,185.394 115.087 C 185.056 116.775,184.667 118.878,183.908 123.134 C 183.019 128.117,181.828 134.354,181.038 138.168 C 180.348 141.494,180.262 142.053,180.404 142.282 C 180.606 142.610,193.901 142.614,194.295 142.287 C 194.463 142.148,194.603 141.688,194.605 141.266 C 194.608 140.843,194.704 140.094,194.818 139.600 C 194.932 139.107,195.115 138.106,195.226 137.377 C 195.336 136.647,195.582 135.146,195.771 134.039 C 195.960 132.933,196.198 131.379,196.299 130.586 C 196.400 129.793,196.655 128.793,196.865 128.363 L 197.247 127.581 202.012 127.521 C 208.356 127.441,207.887 127.190,208.374 130.929 C 208.578 132.496,208.935 134.760,209.530 138.274 C 209.718 139.381,209.927 140.715,209.995 141.239 C 210.167 142.557,209.863 142.502,217.106 142.506 C 224.471 142.510,223.962 142.651,223.631 140.690 C 223.245 138.396,222.557 134.587,222.241 132.980 C 221.936 131.435,221.476 128.892,221.034 126.310 C 220.914 125.611,220.683 124.448,220.519 123.726 C 220.356 123.003,220.222 122.168,220.222 121.870 C 220.222 121.572,220.082 120.781,219.911 120.113 C 219.739 119.445,219.211 116.850,218.736 114.346 C 218.262 111.842,217.786 109.412,217.678 108.947 C 217.570 108.481,217.292 107.051,217.060 105.770 C 216.829 104.489,216.405 102.155,216.119 100.582 C 215.834 99.010,215.552 97.438,215.494 97.088 C 215.249 95.611,214.629 92.272,213.764 87.771 C 213.607 86.956,213.417 85.956,213.342 85.548 C 213.267 85.140,213.075 84.235,212.915 83.536 C 212.620 82.244,212.429 81.259,211.420 75.807 C 211.054 73.832,210.733 72.642,210.520 72.472 C 210.203 72.219,201.394 72.155,195.767 72.366 M233.793 72.502 C 233.436 72.933,233.466 142.316,233.824 142.548 C 234.332 142.877,248.164 142.656,248.375 142.315 C 248.477 142.150,248.572 135.150,248.587 126.759 C 248.618 109.070,248.371 110.746,250.949 110.746 C 253.800 110.746,253.671 110.540,255.260 117.628 C 255.443 118.444,255.687 119.444,255.802 119.852 C 255.917 120.259,256.100 120.974,256.208 121.440 C 256.316 121.906,256.560 122.859,256.749 123.557 C 256.939 124.256,257.168 125.209,257.259 125.675 C 257.350 126.141,257.543 126.951,257.688 127.475 C 258.258 129.536,258.542 130.632,259.060 132.769 C 259.356 133.992,259.800 135.802,260.046 136.792 C 260.293 137.782,260.620 139.164,260.773 139.862 C 261.447 142.942,260.649 142.703,269.796 142.558 L 276.799 142.446 276.691 141.895 C 276.566 141.256,276.579 141.303,274.854 135.204 C 274.129 132.642,273.176 129.259,272.735 127.687 C 272.295 126.114,271.460 123.208,270.880 121.228 C 270.300 119.248,269.424 116.151,268.933 114.346 C 268.442 112.541,267.899 110.662,267.726 110.170 C 267.224 108.738,267.366 108.464,269.312 107.133 C 274.332 103.700,275.807 100.072,275.807 91.159 C 275.807 79.973,271.704 74.739,261.516 72.931 C 258.289 72.358,234.222 71.986,233.793 72.502 M297.815 72.370 C 297.608 72.512,297.392 73.451,296.538 77.925 C 296.371 78.798,296.142 79.942,296.030 80.466 C 295.917 80.990,295.730 81.990,295.613 82.689 C 295.496 83.388,295.252 84.722,295.072 85.654 C 294.891 86.585,294.658 87.872,294.553 88.512 C 294.351 89.744,293.335 95.027,292.538 98.994 C 291.732 103.004,291.580 103.790,291.265 105.558 C 290.850 107.889,290.597 109.165,290.194 110.958 C 290.024 111.715,289.887 112.525,289.890 112.758 C 289.892 112.991,289.753 113.849,289.580 114.664 C 289.407 115.479,289.019 117.480,288.718 119.111 C 288.417 120.741,288.041 122.742,287.883 123.557 C 287.725 124.373,287.439 125.897,287.248 126.945 C 287.057 127.994,286.811 129.144,286.701 129.502 C 286.591 129.859,286.501 130.330,286.501 130.547 C 286.501 130.764,286.366 131.520,286.202 132.226 C 286.038 132.932,285.747 134.415,285.556 135.521 C 285.366 136.628,285.073 138.152,284.906 138.909 C 284.739 139.666,284.577 140.762,284.546 141.345 L 284.489 142.403 291.419 142.459 L 298.349 142.515 298.440 142.036 C 298.614 141.111,298.995 138.766,299.635 134.674 C 300.589 128.579,300.689 128.133,301.190 127.783 C 301.787 127.365,310.994 127.328,311.559 127.741 C 311.913 128.000,312.312 130.049,313.509 137.745 C 313.690 138.909,313.954 140.434,314.096 141.133 L 314.355 142.403 321.007 142.459 C 324.666 142.490,327.733 142.442,327.823 142.352 C 327.913 142.262,327.855 141.474,327.694 140.602 C 327.222 138.038,326.795 135.777,326.335 133.404 C 326.099 132.181,325.613 129.608,325.256 127.687 C 324.899 125.765,324.516 123.716,324.404 123.134 C 324.292 122.552,324.056 121.313,323.878 120.381 C 323.700 119.449,323.324 117.496,323.041 116.040 C 322.759 114.584,322.465 112.965,322.389 112.440 C 322.313 111.916,322.170 111.154,322.071 110.746 C 321.972 110.339,321.736 109.148,321.545 108.100 C 321.355 107.051,321.072 105.527,320.916 104.711 C 320.338 101.689,319.787 98.780,318.371 91.265 C 318.074 89.693,317.686 87.597,317.508 86.607 C 317.329 85.617,317.048 84.140,316.882 83.325 C 316.716 82.509,316.287 80.270,315.929 78.348 C 315.058 73.674,314.858 72.785,314.610 72.472 C 314.376 72.177,298.239 72.078,297.815 72.370 M256.961 82.454 C 260.503 83.671,261.726 85.955,261.880 91.640 C 262.039 97.469,260.631 100.493,257.136 101.830 C 255.229 102.560,249.179 102.756,248.827 102.099 C 248.422 101.341,248.605 82.422,249.021 82.141 C 249.553 81.782,255.711 82.025,256.961 82.454 M202.875 92.278 C 202.915 93.141,203.259 96.156,203.484 97.618 C 203.619 98.491,203.861 100.064,204.022 101.112 C 204.497 104.195,204.745 105.913,204.879 107.041 C 204.949 107.623,205.089 108.576,205.191 109.158 C 205.293 109.741,205.527 111.408,205.712 112.864 C 205.896 114.320,206.139 116.030,206.250 116.664 C 206.608 118.692,206.486 118.761,202.394 118.836 C 197.931 118.918,198.029 118.982,198.393 116.232 C 198.852 112.770,199.254 109.840,199.465 108.417 C 199.577 107.660,199.818 105.897,200.001 104.500 C 200.316 102.086,200.505 100.776,201.261 95.775 C 201.441 94.586,201.588 93.377,201.588 93.088 C 201.588 91.705,202.813 90.934,202.875 92.278 M306.831 92.544 C 306.958 93.015,307.151 94.230,307.261 95.244 C 307.371 96.259,307.554 97.660,307.669 98.359 C 307.784 99.058,308.029 100.725,308.212 102.065 C 308.396 103.404,308.638 105.071,308.750 105.770 C 308.862 106.469,309.043 107.803,309.154 108.735 C 309.264 109.666,309.497 111.429,309.671 112.652 C 310.649 119.534,311.056 118.793,306.300 118.793 C 301.816 118.793,302.033 118.964,302.493 115.794 C 302.668 114.590,302.905 112.843,303.020 111.911 C 303.135 110.979,303.322 109.645,303.436 108.947 C 303.550 108.248,303.790 106.533,303.969 105.135 C 304.332 102.308,304.745 99.286,305.233 95.884 C 305.412 94.640,305.558 93.336,305.558 92.988 C 305.558 92.382,306.014 91.689,306.412 91.689 C 306.516 91.689,306.705 92.074,306.831 92.544 " stroke="none" fill="#383f7d" fill-rule="evenodd"></path><path id="path1" d="M84.277 42.686 C 83.986 42.847,83.480 42.981,83.152 42.983 C 82.824 42.984,82.365 43.088,82.133 43.212 C 81.900 43.336,81.435 43.446,81.098 43.456 C 80.762 43.465,80.437 43.602,80.377 43.759 C 80.317 43.916,80.031 44.044,79.742 44.044 C 79.453 44.044,79.119 44.211,79.001 44.415 C 78.865 44.648,78.782 44.682,78.778 44.506 C 78.773 44.292,78.695 44.303,78.448 44.550 C 78.270 44.728,77.985 44.820,77.815 44.755 C 77.641 44.688,77.448 44.785,77.375 44.975 C 77.303 45.162,77.013 45.315,76.730 45.315 C 76.294 45.315,75.324 45.776,74.960 46.157 C 74.759 46.368,74.006 46.810,73.637 46.934 C 73.433 47.002,73.266 47.190,73.266 47.351 C 73.266 47.512,73.123 47.644,72.949 47.644 C 72.774 47.644,72.631 47.740,72.631 47.856 C 72.631 47.972,72.536 48.068,72.419 48.068 C 72.202 48.068,72.008 48.220,70.725 49.399 C 69.931 50.128,68.794 51.628,69.247 51.347 C 69.426 51.237,69.468 51.262,69.369 51.423 C 69.286 51.558,69.092 51.668,68.938 51.668 C 68.783 51.668,68.605 51.868,68.541 52.112 C 68.477 52.357,68.323 52.494,68.198 52.417 C 68.074 52.341,67.972 52.416,67.972 52.585 C 67.972 52.754,67.830 52.948,67.655 53.015 C 67.480 53.082,67.337 53.330,67.337 53.567 C 67.337 53.808,67.198 53.997,67.020 53.997 C 66.845 53.997,66.702 54.140,66.702 54.314 C 66.702 54.489,66.607 54.632,66.490 54.632 C 66.374 54.632,66.278 54.870,66.278 55.161 C 66.278 55.491,66.158 55.691,65.961 55.691 C 65.786 55.691,65.654 55.762,65.668 55.850 C 65.760 56.434,65.598 56.961,65.326 56.961 C 65.151 56.961,65.008 57.145,65.008 57.370 C 65.008 57.594,64.865 57.921,64.690 58.096 C 64.516 58.270,64.373 58.611,64.373 58.852 C 64.373 59.093,64.277 59.291,64.161 59.291 C 64.044 59.291,63.949 59.708,63.949 60.218 C 63.949 60.783,63.825 61.247,63.632 61.408 C 63.277 61.702,63.175 63.425,63.525 63.208 C 63.665 63.122,63.665 63.264,63.525 63.633 C 63.139 64.648,63.244 147.693,63.632 148.015 C 63.809 148.162,63.949 148.623,63.949 149.057 C 63.949 149.485,64.039 149.926,64.148 150.037 C 64.258 150.148,64.397 150.516,64.458 150.855 C 64.519 151.194,64.668 151.571,64.788 151.692 C 64.909 151.812,65.008 152.076,65.008 152.277 C 65.008 152.478,65.138 152.773,65.298 152.933 C 65.457 153.092,65.654 153.432,65.735 153.689 C 65.817 153.946,65.972 154.156,66.081 154.156 C 66.190 154.156,66.278 154.299,66.278 154.473 C 66.278 154.648,66.374 154.791,66.490 154.791 C 66.607 154.791,66.702 154.934,66.702 155.109 C 66.702 155.283,66.845 155.426,67.020 155.426 C 67.198 155.426,67.337 155.615,67.337 155.856 C 67.337 156.093,67.480 156.341,67.655 156.408 C 67.830 156.475,67.972 156.663,67.972 156.825 C 67.972 156.987,68.115 157.120,68.290 157.120 C 68.465 157.120,68.608 157.253,68.608 157.415 C 68.608 157.577,68.757 157.767,68.939 157.837 C 69.121 157.907,69.212 158.058,69.141 158.173 C 68.999 158.402,71.216 160.720,71.578 160.720 C 71.702 160.720,72.025 160.958,72.295 161.249 C 72.565 161.540,72.894 161.779,73.026 161.779 C 73.158 161.779,73.266 161.922,73.266 162.096 C 73.266 162.294,73.466 162.414,73.796 162.414 C 74.125 162.414,74.325 162.534,74.325 162.732 C 74.325 162.906,74.415 163.049,74.526 163.049 C 74.636 163.049,74.984 163.287,75.298 163.579 C 75.612 163.870,76.038 164.108,76.244 164.108 C 76.450 164.108,76.656 164.218,76.701 164.353 C 76.746 164.488,77.013 164.634,77.296 164.677 C 77.578 164.720,77.887 164.895,77.983 165.067 C 78.079 165.238,78.367 165.382,78.624 165.385 C 78.880 165.389,79.274 165.532,79.501 165.703 C 79.727 165.874,80.174 166.014,80.494 166.014 C 80.814 166.014,81.130 166.101,81.195 166.207 C 81.261 166.313,82.620 166.411,84.215 166.425 C 86.273 166.442,87.211 166.530,87.444 166.727 C 87.818 167.045,89.301 167.127,89.479 166.839 C 89.546 166.731,89.751 166.726,89.955 166.828 C 90.511 167.109,317.205 167.144,317.205 166.863 C 317.205 166.713,317.333 166.700,317.575 166.825 C 318.153 167.123,319.268 167.075,319.546 166.740 C 319.736 166.511,320.375 166.436,322.154 166.431 C 323.837 166.426,324.622 166.339,324.901 166.127 C 325.117 165.964,325.424 165.881,325.584 165.943 C 325.745 166.005,326.188 165.867,326.570 165.637 C 326.951 165.408,327.382 165.263,327.528 165.317 C 327.673 165.370,327.850 165.263,327.921 165.078 C 327.992 164.894,328.278 164.743,328.556 164.743 C 328.866 164.743,329.063 164.619,329.063 164.426 C 329.063 164.233,329.260 164.108,329.561 164.108 C 329.836 164.108,330.317 163.870,330.631 163.579 C 330.945 163.287,331.293 163.049,331.403 163.049 C 331.514 163.049,331.593 162.978,331.579 162.890 C 331.513 162.472,331.631 162.340,331.816 162.626 C 331.953 162.837,332.022 162.855,332.024 162.679 C 332.026 162.533,332.170 162.414,332.345 162.414 C 332.520 162.414,332.663 162.282,332.663 162.121 C 332.663 161.960,332.830 161.772,333.033 161.704 C 333.565 161.525,334.177 161.109,334.716 160.561 C 334.973 160.299,335.283 160.085,335.405 160.085 C 335.527 160.085,335.627 159.997,335.627 159.890 C 335.627 159.782,336.008 159.310,336.474 158.839 C 336.940 158.369,337.321 157.844,337.321 157.673 C 337.321 157.502,337.560 157.175,337.851 156.946 C 338.142 156.717,338.380 156.435,338.380 156.318 C 338.380 156.202,338.523 156.052,338.698 155.985 C 338.872 155.918,339.015 155.622,339.015 155.327 C 339.015 154.992,339.134 154.791,339.333 154.791 C 339.508 154.791,339.651 154.658,339.651 154.496 C 339.651 154.334,339.803 154.142,339.990 154.071 C 340.189 153.994,340.278 153.806,340.206 153.616 C 340.135 153.433,340.218 153.240,340.395 153.172 C 340.568 153.106,340.709 152.883,340.709 152.677 C 340.709 152.470,340.852 152.183,341.027 152.038 C 341.202 151.893,341.345 151.560,341.345 151.297 C 341.345 151.034,341.466 150.718,341.615 150.595 C 341.764 150.472,341.907 150.103,341.934 149.775 C 341.961 149.447,342.115 148.894,342.277 148.544 C 342.468 148.131,342.577 147.067,342.591 145.498 C 342.602 144.172,342.690 142.981,342.787 142.851 C 343.044 142.507,343.053 141.617,342.802 141.315 C 342.665 141.149,342.657 140.914,342.783 140.670 C 343.115 140.022,343.112 68.212,342.780 67.802 C 342.572 67.545,342.570 67.504,342.774 67.627 C 343.088 67.815,343.139 67.310,342.836 67.008 C 342.725 66.896,342.619 65.725,342.601 64.404 C 342.567 61.942,342.397 60.851,342.057 60.916 C 341.951 60.936,341.885 60.580,341.910 60.125 C 341.939 59.603,341.833 59.174,341.624 58.965 C 341.441 58.782,341.292 58.400,341.292 58.115 C 341.292 57.816,341.168 57.597,341.001 57.597 C 340.818 57.597,340.709 57.359,340.709 56.961 C 340.709 56.612,340.624 56.326,340.521 56.326 C 340.417 56.326,340.272 56.088,340.199 55.797 C 340.126 55.506,339.973 55.267,339.858 55.267 C 339.744 55.267,339.651 55.124,339.651 54.950 C 339.651 54.775,339.508 54.632,339.333 54.632 C 339.151 54.632,339.015 54.441,339.015 54.185 C 339.015 53.750,338.739 53.375,337.415 52.015 C 337.059 51.649,336.704 51.183,336.627 50.979 C 336.551 50.776,336.389 50.609,336.269 50.609 C 336.149 50.609,336.051 50.510,336.051 50.389 C 336.051 50.016,334.162 48.312,333.664 48.236 C 333.404 48.196,333.216 48.047,333.245 47.904 C 333.274 47.761,333.155 47.644,332.980 47.644 C 332.806 47.644,332.663 47.501,332.663 47.327 C 332.663 47.152,332.530 47.009,332.368 47.009 C 332.206 47.009,332.018 46.866,331.951 46.691 C 331.884 46.517,331.647 46.374,331.425 46.374 C 331.203 46.374,330.900 46.229,330.753 46.051 C 330.605 45.873,330.435 45.778,330.373 45.840 C 330.312 45.901,330.071 45.784,329.838 45.580 C 329.536 45.316,329.467 45.301,329.597 45.527 C 329.754 45.800,329.730 45.804,329.424 45.556 C 329.228 45.397,328.924 45.323,328.748 45.391 C 328.537 45.471,328.428 45.387,328.428 45.142 C 328.428 44.917,328.254 44.757,327.987 44.737 C 327.745 44.718,327.401 44.582,327.223 44.434 C 327.044 44.287,326.647 44.132,326.340 44.091 C 326.033 44.050,325.704 43.877,325.609 43.708 C 325.515 43.539,325.356 43.451,325.256 43.512 C 325.157 43.574,324.805 43.513,324.475 43.378 C 323.735 43.075,323.452 43.014,322.448 42.939 C 322.013 42.906,321.611 42.761,321.555 42.616 C 321.396 42.201,85.025 42.270,84.277 42.686 M114.998 54.151 C 115.656 55.576,116.339 56.957,116.516 57.222 L 116.838 57.702 119.256 56.476 C 122.496 54.832,122.922 55.052,122.409 58.099 C 121.140 65.642,121.146 65.616,120.667 65.872 C 119.745 66.365,105.864 66.204,105.452 65.695 C 105.044 65.192,104.719 63.612,103.869 58.020 C 103.396 54.913,104.273 54.719,108.039 57.096 C 109.448 57.986,109.495 57.946,111.074 54.514 C 112.967 50.400,113.253 50.373,114.998 54.151 M120.474 70.983 C 121.051 71.477,121.021 125.935,120.443 128.216 C 117.960 138.010,111.025 143.138,100.265 143.138 C 93.560 143.138,88.964 141.446,85.208 137.594 C 80.959 133.238,79.971 130.185,80.081 121.762 L 80.148 116.683 80.840 115.991 L 81.532 115.299 87.551 115.234 C 95.997 115.143,95.546 114.795,95.708 121.537 C 95.833 126.724,96.042 127.494,97.691 128.829 C 98.895 129.803,101.480 129.810,102.912 128.843 C 105.182 127.311,105.186 127.273,105.442 106.088 C 105.804 76.185,105.904 71.616,106.204 71.205 C 106.458 70.857,111.747 70.619,119.263 70.619 C 119.701 70.619,120.238 70.781,120.474 70.983 M146.773 70.966 L 147.226 71.419 147.146 98.229 C 147.061 126.749,147.066 126.911,148.048 128.827 C 149.658 131.964,154.716 132.042,156.198 128.952 C 157.357 126.535,157.332 127.222,157.332 98.079 C 157.332 73.907,157.366 71.145,157.665 70.846 C 158.131 70.380,172.805 70.339,173.190 70.804 C 173.485 71.159,173.514 123.680,173.220 125.675 C 172.572 130.072,172.354 130.983,171.427 133.169 C 168.405 140.298,163.042 143.042,152.144 143.036 C 141.602 143.031,135.838 140.141,133.156 133.516 C 132.919 132.930,132.647 132.260,132.553 132.028 C 130.966 128.131,130.666 121.099,130.656 87.493 C 130.651 71.702,130.675 71.140,131.371 70.676 C 132.035 70.232,146.309 70.502,146.773 70.966 M211.219 71.991 C 211.560 72.368,211.742 73.137,212.374 76.866 C 212.556 77.944,212.958 80.104,213.240 81.525 C 213.344 82.049,213.583 83.383,213.771 84.489 C 213.959 85.596,214.249 87.120,214.415 87.877 C 214.582 88.634,214.718 89.570,214.717 89.956 C 214.717 90.342,214.816 90.843,214.937 91.069 C 215.058 91.295,215.245 92.075,215.353 92.802 C 215.461 93.529,215.687 94.791,215.855 95.606 C 216.023 96.421,216.364 98.137,216.614 99.418 C 216.863 100.699,217.201 102.414,217.365 103.229 C 217.528 104.044,217.817 105.569,218.007 106.617 C 218.197 107.665,218.436 108.952,218.537 109.476 C 218.638 110.000,218.870 111.286,219.052 112.335 C 219.234 113.383,219.478 114.669,219.595 115.193 C 219.711 115.717,219.894 116.765,220.002 117.522 C 220.223 119.087,220.542 120.794,221.387 124.934 C 221.541 125.691,221.816 127.073,221.997 128.004 C 222.398 130.060,222.501 130.578,222.864 132.345 C 223.020 133.102,223.311 134.579,223.511 135.627 C 223.711 136.675,223.947 137.914,224.036 138.380 C 225.050 143.674,225.815 143.145,217.152 143.145 C 209.099 143.145,209.714 143.307,209.390 141.090 C 209.274 140.299,209.044 138.957,208.878 138.109 C 208.712 137.262,208.576 136.196,208.576 135.741 C 208.576 135.286,208.473 134.646,208.347 134.318 C 208.222 133.990,208.041 133.102,207.946 132.345 C 207.666 130.119,207.248 128.324,207.003 128.299 C 206.246 128.221,197.482 128.334,197.394 128.422 C 197.236 128.580,196.932 130.303,196.720 132.241 C 196.618 133.174,196.433 134.204,196.309 134.531 C 196.184 134.858,196.080 135.524,196.078 136.012 C 196.075 136.499,195.981 137.279,195.869 137.745 C 195.757 138.211,195.572 139.390,195.457 140.366 C 195.342 141.342,195.100 142.368,194.918 142.645 L 194.587 143.150 187.258 143.094 C 179.005 143.032,179.270 143.087,179.718 141.522 C 179.846 141.075,180.063 140.042,180.199 139.227 C 180.684 136.320,181.300 132.915,181.771 130.545 C 181.956 129.614,182.160 128.565,182.224 128.216 C 182.885 124.629,183.650 120.662,183.795 120.064 C 184.063 118.955,184.430 117.135,184.640 115.871 C 184.742 115.253,184.923 114.300,185.041 113.753 C 185.290 112.597,185.702 110.420,185.930 109.052 C 186.017 108.528,186.191 107.480,186.317 106.723 C 186.543 105.364,186.636 104.865,187.278 101.535 C 187.458 100.603,187.895 98.269,188.248 96.347 C 188.602 94.426,188.985 92.561,189.099 92.203 C 189.213 91.845,189.307 91.337,189.307 91.073 C 189.307 90.809,189.446 90.006,189.617 89.288 C 189.788 88.570,190.066 87.268,190.235 86.395 C 190.880 83.066,191.204 81.397,191.325 80.783 C 191.394 80.434,191.529 79.608,191.624 78.947 C 191.720 78.286,191.896 77.285,192.016 76.723 C 192.137 76.161,192.358 74.987,192.508 74.113 C 192.700 73.004,192.926 72.381,193.258 72.049 L 193.734 71.572 202.287 71.572 C 210.539 71.572,210.853 71.587,211.219 71.991 M259.472 71.897 C 262.126 72.343,264.544 72.888,264.786 73.095 C 264.896 73.189,265.120 73.266,265.283 73.266 C 267.114 73.266,272.123 76.625,273.466 78.753 C 276.064 82.868,276.625 85.092,276.595 91.159 C 276.550 100.162,274.622 104.667,269.402 107.970 C 268.165 108.752,267.944 109.548,268.609 110.824 C 268.783 111.157,268.925 111.583,268.925 111.769 C 268.925 111.956,269.056 112.493,269.217 112.963 C 269.537 113.903,270.016 115.471,270.384 116.781 C 270.514 117.247,270.870 118.486,271.173 119.534 C 271.477 120.582,271.803 121.773,271.898 122.181 C 271.993 122.589,272.320 123.827,272.625 124.934 C 272.930 126.040,273.311 127.422,273.471 128.004 C 273.631 128.587,273.854 129.349,273.966 129.698 C 274.077 130.048,274.337 130.905,274.542 131.604 C 274.746 132.303,274.988 133.113,275.079 133.404 C 275.170 133.695,275.395 134.457,275.580 135.098 C 275.764 135.738,276.259 137.454,276.680 138.909 C 277.688 142.393,277.700 142.460,277.394 142.828 C 277.170 143.099,275.968 143.145,269.108 143.145 L 261.084 143.145 260.794 142.456 C 260.634 142.078,260.399 141.339,260.270 140.815 C 260.142 140.291,259.380 137.194,258.577 133.933 C 257.775 130.672,256.816 126.670,256.446 125.040 C 256.076 123.409,255.645 121.646,255.490 121.122 C 255.334 120.598,255.047 119.502,254.853 118.687 C 254.335 116.516,253.457 113.074,253.218 112.282 L 253.011 111.593 251.122 111.593 L 249.232 111.593 249.203 116.940 C 249.187 119.881,249.116 126.956,249.044 132.663 L 248.915 143.039 241.211 143.094 C 235.701 143.134,233.424 143.081,233.217 142.910 C 232.847 142.603,232.778 72.671,233.147 71.982 C 233.449 71.418,256.183 71.345,259.472 71.897 M315.046 71.754 C 315.450 72.010,315.909 73.862,316.654 78.242 C 316.812 79.174,317.142 80.937,317.387 82.160 C 317.632 83.383,317.982 85.193,318.164 86.183 C 318.882 90.093,319.127 91.414,319.323 92.430 C 319.436 93.012,319.679 94.346,319.865 95.394 C 320.050 96.443,320.331 97.920,320.488 98.677 C 320.816 100.257,321.045 101.447,321.647 104.711 C 322.140 107.389,322.417 108.806,322.824 110.746 C 322.983 111.503,323.271 113.028,323.465 114.134 C 323.658 115.241,324.007 117.099,324.242 118.264 C 324.476 119.428,324.747 120.905,324.843 121.546 C 325.008 122.641,325.325 124.332,326.016 127.792 C 326.179 128.608,326.451 130.037,326.620 130.969 C 327.897 137.990,328.463 140.928,328.667 141.602 C 329.145 143.179,329.311 143.145,321.247 143.145 C 315.681 143.145,314.030 143.084,313.855 142.873 C 313.636 142.609,313.429 141.558,312.537 136.157 C 311.432 129.468,311.264 128.628,310.992 128.428 C 310.596 128.136,301.840 128.145,301.547 128.437 C 301.425 128.559,301.177 129.655,300.996 130.873 C 300.480 134.349,299.868 138.186,299.292 141.556 C 298.996 143.286,299.667 143.157,291.309 143.094 L 283.854 143.039 283.794 142.298 C 283.742 141.661,284.156 139.246,285.552 132.028 C 286.263 128.356,286.537 126.856,286.720 125.648 C 286.827 124.934,287.477 121.504,288.164 118.025 C 288.851 114.546,289.625 110.556,289.885 109.158 C 290.145 107.761,290.550 105.664,290.785 104.500 C 291.338 101.767,291.259 102.186,292.130 97.406 C 292.544 95.135,293.022 92.562,293.191 91.689 C 293.597 89.598,294.032 87.250,294.330 85.548 C 294.463 84.791,294.750 83.314,294.969 82.266 C 295.188 81.218,295.523 79.502,295.713 78.454 C 296.790 72.533,296.950 71.877,297.365 71.709 C 297.809 71.528,314.758 71.571,315.046 71.754 M249.391 82.911 C 249.304 83.002,249.232 87.252,249.232 92.355 L 249.232 101.633 249.775 101.769 C 252.205 102.379,257.156 101.363,258.845 99.908 C 262.870 96.440,262.231 86.056,257.843 83.639 C 256.600 82.954,249.900 82.377,249.391 82.911 M201.932 95.443 C 201.856 96.231,201.703 97.544,201.592 98.359 C 201.333 100.272,200.830 104.062,200.425 107.147 C 200.037 110.111,199.749 112.103,199.445 113.923 C 199.319 114.680,199.166 115.895,199.107 116.623 L 198.998 117.946 200.240 117.991 C 205.228 118.170,205.725 118.069,205.526 116.920 C 205.315 115.700,204.269 108.027,203.920 105.135 C 203.636 102.783,203.286 100.160,203.071 98.782 C 202.963 98.084,202.811 96.893,202.734 96.136 C 202.518 94.002,202.106 93.646,201.932 95.443 M306.004 96.077 C 305.747 97.333,305.468 99.274,305.143 102.065 C 305.041 102.938,304.859 104.272,304.737 105.029 C 304.440 106.879,303.951 110.301,303.541 113.393 C 303.356 114.791,303.127 116.343,303.033 116.842 C 302.799 118.078,303.010 118.158,306.504 118.158 C 309.900 118.158,309.755 118.284,309.378 115.652 C 309.234 114.643,309.039 113.245,308.945 112.546 C 308.850 111.848,308.574 109.894,308.330 108.205 C 308.086 106.517,307.650 103.372,307.360 101.218 C 306.434 94.337,306.392 94.179,306.004 96.077 M328.123 148.530 C 329.337 149.427,334.361 149.391,205.654 149.391 C 138.373 149.391,83.154 149.321,82.945 149.236 C 82.638 149.110,82.609 148.998,82.793 148.653 L 83.022 148.227 205.367 148.227 C 311.230 148.227,327.767 148.267,328.123 148.530 " stroke="none" fill="#dadada" fill-rule="evenodd"></path><path id="path2" d="M112.463 51.746 C 112.321 51.918,111.696 53.163,111.074 54.514 C 109.495 57.946,109.448 57.986,108.039 57.096 C 104.273 54.719,103.396 54.913,103.869 58.020 C 104.719 63.612,105.044 65.192,105.452 65.695 C 105.864 66.204,119.745 66.365,120.667 65.872 C 121.146 65.616,121.140 65.642,122.409 58.099 C 122.922 55.052,122.496 54.832,119.256 56.476 L 116.838 57.702 116.516 57.222 C 116.339 56.957,115.656 55.576,114.998 54.151 C 113.749 51.447,113.168 50.896,112.463 51.746 M82.793 148.653 C 82.609 148.998,82.638 149.110,82.945 149.236 C 83.698 149.545,327.953 149.422,328.258 149.112 C 329.175 148.183,335.196 148.227,205.367 148.227 L 83.022 148.227 82.793 148.653 " stroke="none" fill="#b0a58c" fill-rule="evenodd"></path><path id="path3" d="M131.379 71.299 C 130.782 71.895,131.058 123.955,131.675 127.388 C 133.616 138.173,139.914 142.933,152.245 142.933 C 165.207 142.933,171.242 137.932,172.888 125.826 C 173.220 123.384,173.405 72.107,173.085 71.272 C 172.935 70.881,158.574 70.760,157.967 71.145 C 157.688 71.322,157.649 74.597,157.646 98.510 C 157.642 128.480,157.701 127.093,156.344 129.416 C 154.411 132.725,148.702 132.020,147.493 128.322 C 146.725 125.974,146.698 124.897,146.736 97.898 C 146.773 71.577,146.770 71.389,146.349 71.164 C 145.554 70.738,131.815 70.862,131.379 71.299 M106.605 71.449 C 106.116 71.806,106.178 69.649,105.991 92.853 C 105.803 116.401,105.585 124.917,105.136 126.383 C 104.054 129.914,99.369 131.163,96.868 128.588 C 95.551 127.232,95.289 126.087,95.287 121.697 C 95.285 115.255,95.727 115.617,87.874 115.617 C 79.885 115.617,80.475 115.093,80.475 122.181 C 80.475 133.223,83.962 138.861,92.580 141.754 C 104.653 145.807,116.955 140.026,119.894 128.919 L 120.360 127.157 120.405 99.418 C 120.435 80.553,120.380 71.593,120.231 71.413 C 119.890 71.002,107.171 71.035,106.605 71.449 M146.333 98.782 C 146.415 117.843,146.522 126.386,146.688 127.051 C 148.231 133.261,155.240 133.817,157.367 127.898 L 157.861 126.522 157.971 98.994 C 158.031 83.854,158.102 71.441,158.129 71.411 C 158.157 71.380,161.490 71.380,165.537 71.411 L 172.896 71.466 172.889 97.512 C 172.883 124.749,172.852 125.799,171.949 129.381 C 170.377 135.612,166.828 139.732,161.673 141.308 C 159.416 141.998,158.849 142.117,156.697 142.349 C 146.678 143.430,139.514 141.314,135.306 136.031 C 133.631 133.929,132.496 130.595,131.831 125.826 C 131.482 123.324,131.303 71.838,131.642 71.499 C 131.721 71.420,135.032 71.380,139.000 71.411 L 146.215 71.466 146.333 98.782 M120.064 99.073 L 120.064 126.574 119.534 128.665 C 118.136 134.186,114.931 138.173,109.899 140.651 C 105.384 142.874,97.222 143.135,91.927 141.225 C 86.438 139.245,81.808 133.720,81.025 128.216 C 80.753 126.305,80.833 117.184,81.125 116.715 C 81.547 116.040,81.510 116.044,87.852 116.033 C 95.653 116.020,94.935 115.465,94.973 121.546 C 95.016 128.302,96.181 130.210,100.268 130.223 C 104.942 130.238,106.092 127.639,106.084 117.085 C 106.075 105.530,106.552 72.500,106.734 72.049 L 106.926 71.572 113.495 71.572 L 120.064 71.572 120.064 99.073 M196.188 71.933 C 193.048 72.036,193.305 71.800,192.664 75.172 C 191.841 79.503,191.676 80.381,191.324 82.266 C 191.129 83.314,190.841 84.839,190.684 85.654 C 190.527 86.469,190.253 87.898,190.077 88.830 C 188.961 94.714,188.127 99.125,187.396 103.017 C 186.937 105.463,186.469 107.893,186.356 108.417 C 186.244 108.941,185.999 110.228,185.813 111.276 C 185.626 112.324,185.342 113.849,185.180 114.664 C 184.895 116.108,184.374 118.777,184.002 120.699 C 183.900 121.223,183.617 122.747,183.372 124.087 C 183.127 125.426,182.798 127.189,182.640 128.004 C 182.482 128.819,182.099 130.821,181.788 132.451 C 181.477 134.082,180.992 136.559,180.709 137.957 C 180.427 139.354,180.173 141.022,180.145 141.662 L 180.095 142.827 187.039 142.883 C 194.645 142.944,194.690 142.937,194.880 141.723 C 194.948 141.282,195.155 139.968,195.339 138.804 C 195.522 137.639,195.754 136.114,195.854 135.416 C 195.953 134.717,196.137 133.573,196.262 132.875 C 196.387 132.176,196.601 130.937,196.738 130.122 C 197.144 127.698,196.640 127.898,202.329 127.898 C 208.304 127.898,207.445 127.125,208.443 133.404 C 208.927 136.454,209.422 139.495,209.683 141.027 C 210.025 143.038,209.615 142.933,217.139 142.930 C 225.152 142.926,224.560 143.183,223.939 139.968 C 223.604 138.234,223.172 135.942,222.759 133.722 C 222.536 132.518,222.112 130.318,221.596 127.687 C 221.276 126.052,220.838 123.729,220.537 122.075 C 220.473 121.726,220.286 120.725,220.120 119.852 C 219.954 118.978,219.669 117.454,219.487 116.464 C 219.095 114.335,218.862 113.107,218.442 110.958 C 218.147 109.448,217.967 108.482,217.157 104.076 C 216.964 103.028,216.574 100.979,216.290 99.524 C 216.007 98.068,215.623 96.067,215.437 95.077 C 215.251 94.087,214.962 92.562,214.796 91.689 C 214.201 88.572,214.082 87.940,213.440 84.489 C 213.082 82.567,212.703 80.566,212.597 80.042 C 212.491 79.518,212.159 77.755,211.861 76.125 C 211.562 74.494,211.270 72.943,211.211 72.676 C 211.153 72.410,210.863 72.101,210.568 71.988 C 210.082 71.804,201.197 71.770,196.188 71.933 M233.743 71.940 C 233.551 71.983,233.338 72.228,233.270 72.484 C 233.036 73.354,233.123 142.084,233.358 142.523 C 233.578 142.934,247.463 143.192,248.474 142.804 C 248.775 142.689,248.809 141.114,248.809 127.177 C 248.809 109.504,248.577 111.170,251.034 111.170 C 253.444 111.170,253.539 111.314,254.759 116.781 C 254.972 117.734,255.436 119.674,255.886 121.493 C 256.052 122.163,256.523 124.092,256.934 125.781 C 258.216 131.062,259.382 135.760,259.928 137.851 C 260.217 138.957,260.554 140.339,260.678 140.921 C 260.801 141.503,261.042 142.194,261.213 142.456 L 261.524 142.933 269.019 142.933 C 273.141 142.933,276.665 142.875,276.849 142.804 C 277.317 142.624,277.289 142.416,276.348 139.158 C 275.888 137.565,275.372 135.738,275.201 135.098 C 275.030 134.457,274.543 132.742,274.118 131.286 C 273.693 129.831,273.027 127.496,272.637 126.098 C 272.247 124.701,271.341 121.509,270.625 119.005 C 267.357 107.592,267.546 108.594,268.555 108.072 C 273.777 105.373,276.339 99.757,276.336 91.015 C 276.332 79.227,270.833 73.383,258.655 72.227 C 256.484 72.021,234.513 71.768,233.743 71.940 M297.795 71.995 C 297.243 72.218,297.248 72.202,296.572 75.913 C 296.274 77.544,295.940 79.307,295.828 79.831 C 295.717 80.355,294.950 84.357,294.125 88.724 C 293.299 93.092,292.397 97.856,292.119 99.312 C 291.841 100.768,291.410 103.055,291.161 104.394 C 290.342 108.808,289.672 112.312,289.362 113.817 C 289.036 115.398,287.598 122.920,286.489 128.851 C 286.118 130.831,285.681 133.166,285.516 134.039 C 285.352 134.913,285.138 136.056,285.042 136.580 C 284.493 139.559,284.335 140.383,284.137 141.298 C 283.768 143.002,283.460 142.933,291.371 142.933 C 299.488 142.933,298.657 143.263,299.195 139.829 C 300.711 130.162,300.991 128.610,301.283 128.269 C 301.691 127.793,311.060 127.695,311.438 128.163 C 311.618 128.387,312.766 134.931,313.620 140.603 C 313.996 143.103,313.440 142.933,321.235 142.933 C 328.827 142.933,328.592 142.984,328.233 141.419 C 328.016 140.472,327.798 139.323,325.779 128.428 C 325.131 124.934,324.417 121.170,324.192 120.064 C 323.840 118.336,320.496 100.689,319.317 94.336 C 318.156 88.084,315.463 73.892,315.300 73.166 C 315.196 72.704,314.945 72.203,314.741 72.055 C 314.305 71.736,298.575 71.681,297.795 71.995 M210.520 72.472 C 210.733 72.642,211.054 73.832,211.420 75.807 C 212.429 81.259,212.620 82.244,212.915 83.536 C 213.075 84.235,213.267 85.140,213.342 85.548 C 213.417 85.956,213.607 86.956,213.764 87.771 C 214.629 92.272,215.249 95.611,215.494 97.088 C 215.552 97.438,215.834 99.010,216.119 100.582 C 216.405 102.155,216.829 104.489,217.060 105.770 C 217.292 107.051,217.570 108.481,217.678 108.947 C 217.786 109.412,218.262 111.842,218.736 114.346 C 219.211 116.850,219.739 119.445,219.911 120.113 C 220.082 120.781,220.222 121.572,220.222 121.870 C 220.222 122.168,220.356 123.003,220.519 123.726 C 220.683 124.448,220.914 125.611,221.034 126.310 C 221.476 128.892,221.936 131.435,222.241 132.980 C 222.557 134.587,223.245 138.396,223.631 140.690 C 223.962 142.651,224.471 142.510,217.106 142.506 C 209.863 142.502,210.167 142.557,209.995 141.239 C 209.927 140.715,209.718 139.381,209.530 138.274 C 208.935 134.760,208.578 132.496,208.374 130.929 C 207.887 127.190,208.356 127.441,202.012 127.521 L 197.247 127.581 196.865 128.363 C 196.655 128.793,196.400 129.793,196.299 130.586 C 196.198 131.379,195.960 132.933,195.771 134.039 C 195.582 135.146,195.336 136.647,195.226 137.377 C 195.115 138.106,194.932 139.107,194.818 139.600 C 194.704 140.094,194.608 140.843,194.605 141.266 C 194.603 141.688,194.463 142.148,194.295 142.287 C 193.901 142.614,180.606 142.610,180.404 142.282 C 180.262 142.053,180.348 141.494,181.038 138.168 C 181.828 134.354,183.019 128.117,183.908 123.134 C 184.667 118.878,185.056 116.775,185.394 115.087 C 185.558 114.272,185.797 113.033,185.926 112.335 C 186.055 111.636,186.286 110.445,186.440 109.688 C 186.722 108.298,187.045 106.678,187.812 102.806 C 188.043 101.641,188.431 99.592,188.675 98.253 C 188.919 96.914,189.205 95.389,189.311 94.865 C 189.417 94.341,189.794 92.245,190.150 90.206 C 190.506 88.168,190.938 85.868,191.111 85.094 C 191.283 84.320,191.424 83.445,191.424 83.149 C 191.424 82.853,191.523 82.351,191.643 82.034 C 191.764 81.717,191.947 80.925,192.049 80.273 C 192.384 78.149,193.549 72.750,193.708 72.592 C 194.098 72.202,210.040 72.088,210.520 72.472 M257.173 72.518 C 270.173 72.995,275.807 78.631,275.807 91.159 C 275.807 100.072,274.332 103.700,269.312 107.133 C 267.366 108.464,267.224 108.738,267.726 110.170 C 267.899 110.662,268.442 112.541,268.933 114.346 C 269.424 116.151,270.300 119.248,270.880 121.228 C 271.460 123.208,272.295 126.114,272.735 127.687 C 273.176 129.259,274.129 132.642,274.854 135.204 C 276.579 141.303,276.566 141.256,276.691 141.895 L 276.799 142.446 269.796 142.558 C 260.649 142.703,261.447 142.942,260.773 139.862 C 260.620 139.164,260.293 137.782,260.046 136.792 C 259.800 135.802,259.356 133.992,259.060 132.769 C 258.542 130.632,258.258 129.536,257.688 127.475 C 257.543 126.951,257.350 126.141,257.259 125.675 C 257.168 125.209,256.939 124.256,256.749 123.557 C 256.560 122.859,256.316 121.906,256.208 121.440 C 256.100 120.974,255.917 120.259,255.802 119.852 C 255.687 119.444,255.443 118.444,255.260 117.628 C 253.671 110.540,253.800 110.746,250.949 110.746 C 248.371 110.746,248.618 109.070,248.587 126.759 C 248.572 135.150,248.477 142.150,248.375 142.315 C 248.164 142.656,234.332 142.877,233.824 142.548 C 233.466 142.316,233.436 72.933,233.793 72.502 C 234.014 72.236,249.790 72.247,257.173 72.518 M314.610 72.472 C 314.858 72.785,315.058 73.674,315.929 78.348 C 316.287 80.270,316.716 82.509,316.882 83.325 C 317.048 84.140,317.329 85.617,317.508 86.607 C 317.686 87.597,318.074 89.693,318.371 91.265 C 319.787 98.780,320.338 101.689,320.916 104.711 C 321.072 105.527,321.355 107.051,321.545 108.100 C 321.736 109.148,321.972 110.339,322.071 110.746 C 322.170 111.154,322.313 111.916,322.389 112.440 C 322.465 112.965,322.759 114.584,323.041 116.040 C 323.324 117.496,323.700 119.449,323.878 120.381 C 324.056 121.313,324.292 122.552,324.404 123.134 C 324.516 123.716,324.899 125.765,325.256 127.687 C 325.613 129.608,326.099 132.181,326.335 133.404 C 326.795 135.777,327.222 138.038,327.694 140.602 C 327.855 141.474,327.913 142.262,327.823 142.352 C 327.733 142.442,324.666 142.490,321.007 142.459 L 314.355 142.403 314.096 141.133 C 313.954 140.434,313.690 138.909,313.509 137.745 C 312.312 130.049,311.913 128.000,311.559 127.741 C 310.994 127.328,301.787 127.365,301.190 127.783 C 300.689 128.133,300.589 128.579,299.635 134.674 C 298.995 138.766,298.614 141.111,298.440 142.036 L 298.349 142.515 291.419 142.459 L 284.489 142.403 284.546 141.345 C 284.577 140.762,284.739 139.666,284.906 138.909 C 285.073 138.152,285.366 136.628,285.556 135.521 C 285.747 134.415,286.038 132.932,286.202 132.226 C 286.366 131.520,286.501 130.764,286.501 130.547 C 286.501 130.330,286.591 129.859,286.701 129.502 C 286.811 129.144,287.057 127.994,287.248 126.945 C 287.439 125.897,287.725 124.373,287.883 123.557 C 288.041 122.742,288.417 120.741,288.718 119.111 C 289.019 117.480,289.407 115.479,289.580 114.664 C 289.753 113.849,289.892 112.991,289.890 112.758 C 289.887 112.525,290.024 111.715,290.194 110.958 C 290.597 109.165,290.850 107.889,291.265 105.558 C 291.580 103.790,291.732 103.004,292.538 98.994 C 293.335 95.027,294.351 89.744,294.553 88.512 C 294.658 87.872,294.891 86.585,295.072 85.654 C 295.252 84.722,295.496 83.388,295.613 82.689 C 295.730 81.990,295.917 80.990,296.030 80.466 C 296.142 79.942,296.371 78.798,296.538 77.925 C 297.392 73.451,297.608 72.512,297.815 72.370 C 298.239 72.078,314.376 72.177,314.610 72.472 M249.021 82.141 C 248.605 82.422,248.422 101.341,248.827 102.099 C 249.179 102.756,255.229 102.560,257.136 101.830 C 260.631 100.493,262.039 97.469,261.880 91.640 C 261.726 85.955,260.503 83.671,256.961 82.454 C 255.711 82.025,249.553 81.782,249.021 82.141 M256.151 82.667 C 260.069 83.508,261.732 86.378,261.722 92.285 C 261.715 97.022,260.248 100.038,257.294 101.391 C 255.687 102.128,249.563 102.380,249.088 101.730 C 248.744 101.259,248.677 83.806,249.015 82.915 L 249.222 82.372 252.033 82.379 C 253.579 82.383,255.432 82.513,256.151 82.667 M201.798 92.012 C 201.683 92.315,201.588 92.800,201.588 93.088 C 201.588 93.377,201.441 94.586,201.261 95.775 C 200.505 100.776,200.316 102.086,200.001 104.500 C 199.818 105.897,199.577 107.660,199.465 108.417 C 199.254 109.840,198.852 112.770,198.393 116.232 C 198.029 118.982,197.931 118.918,202.394 118.836 C 206.486 118.761,206.608 118.692,206.250 116.664 C 206.139 116.030,205.896 114.320,205.712 112.864 C 205.527 111.408,205.293 109.741,205.191 109.158 C 205.089 108.576,204.949 107.623,204.879 107.041 C 204.745 105.913,204.497 104.195,204.022 101.112 C 203.861 100.064,203.619 98.491,203.484 97.618 C 203.259 96.156,202.915 93.141,202.875 92.278 C 202.843 91.584,202.036 91.384,201.798 92.012 M305.891 92.021 C 305.708 92.204,305.558 92.639,305.558 92.988 C 305.558 93.336,305.412 94.640,305.233 95.884 C 304.745 99.286,304.332 102.308,303.969 105.135 C 303.790 106.533,303.550 108.248,303.436 108.947 C 303.322 109.645,303.135 110.979,303.020 111.911 C 302.905 112.843,302.668 114.590,302.493 115.794 C 302.033 118.964,301.816 118.793,306.300 118.793 C 310.683 118.793,310.547 118.875,310.205 116.431 C 310.085 115.575,309.845 113.875,309.671 112.652 C 309.497 111.429,309.264 109.666,309.154 108.735 C 309.043 107.803,308.862 106.469,308.750 105.770 C 308.638 105.071,308.396 103.404,308.212 102.065 C 308.029 100.725,307.784 99.058,307.669 98.359 C 307.554 97.660,307.371 96.259,307.261 95.244 C 306.914 92.037,306.605 91.308,305.891 92.021 M202.750 93.994 C 203.136 97.113,203.767 101.763,204.335 105.664 C 204.445 106.421,204.593 107.565,204.663 108.205 C 204.734 108.846,204.876 109.894,204.980 110.535 C 205.083 111.175,205.320 112.795,205.506 114.134 C 205.692 115.474,205.883 116.820,205.929 117.126 C 206.108 118.301,205.834 118.387,202.116 118.322 L 198.729 118.264 198.784 116.892 C 198.814 116.137,199.118 113.564,199.459 111.174 C 200.193 106.037,201.050 99.785,201.505 96.241 C 202.059 91.937,202.006 92.164,202.340 92.620 C 202.499 92.838,202.684 93.456,202.750 93.994 M306.805 94.653 C 306.940 95.527,307.468 99.243,307.978 102.912 C 308.488 106.580,309.170 111.476,309.494 113.792 C 310.214 118.945,310.540 118.510,306.068 118.370 L 302.700 118.264 302.726 117.417 C 302.741 116.951,302.903 115.474,303.088 114.134 C 303.514 111.035,304.799 101.648,305.363 97.512 C 306.076 92.289,306.353 91.739,306.805 94.653 " stroke="none" fill="#8484a8" fill-rule="evenodd"></path><path id="path4" d="M112.476 70.725 C 107.060 70.821,106.450 70.867,106.204 71.205 C 105.904 71.616,105.804 76.185,105.442 106.088 C 105.186 127.273,105.182 127.311,102.912 128.843 C 101.480 129.810,98.895 129.803,97.691 128.829 C 96.042 127.494,95.833 126.724,95.708 121.537 C 95.546 114.795,95.997 115.143,87.551 115.234 L 81.532 115.299 80.840 115.991 L 80.148 116.683 80.081 121.762 C 79.971 130.185,80.959 133.238,85.208 137.594 C 88.964 141.446,93.560 143.138,100.265 143.138 C 111.025 143.138,117.960 138.010,120.443 128.216 C 120.722 127.118,120.774 123.179,120.832 99.146 C 120.907 67.727,121.067 70.619,119.263 70.619 C 118.830 70.619,115.776 70.667,112.476 70.725 M131.371 70.676 C 130.675 71.140,130.651 71.702,130.656 87.493 C 130.666 121.099,130.966 128.131,132.553 132.028 C 132.647 132.260,132.919 132.930,133.156 133.516 C 135.838 140.141,141.602 143.031,152.144 143.036 C 163.042 143.042,168.405 140.298,171.427 133.169 C 172.354 130.983,172.572 130.072,173.220 125.675 C 173.514 123.680,173.485 71.159,173.190 70.804 C 172.805 70.339,158.131 70.380,157.665 70.846 C 157.366 71.145,157.332 73.907,157.332 98.079 C 157.332 127.222,157.357 126.535,156.198 128.952 C 154.716 132.042,149.658 131.964,148.048 128.827 C 147.066 126.911,147.061 126.749,147.146 98.229 L 147.226 71.419 146.773 70.966 C 146.309 70.502,132.035 70.232,131.371 70.676 M146.349 71.164 C 146.770 71.389,146.773 71.577,146.736 97.898 C 146.698 124.897,146.725 125.974,147.493 128.322 C 148.702 132.020,154.411 132.725,156.344 129.416 C 157.701 127.093,157.642 128.480,157.646 98.510 C 157.649 74.597,157.688 71.322,157.967 71.145 C 158.574 70.760,172.935 70.881,173.085 71.272 C 173.405 72.107,173.220 123.384,172.888 125.826 C 171.242 137.932,165.207 142.933,152.245 142.933 C 139.914 142.933,133.616 138.173,131.675 127.388 C 131.058 123.955,130.782 71.895,131.379 71.299 C 131.815 70.862,145.554 70.738,146.349 71.164 M120.231 71.413 C 120.380 71.593,120.435 80.553,120.405 99.418 L 120.360 127.157 119.894 128.919 C 116.955 140.026,104.653 145.807,92.580 141.754 C 83.962 138.861,80.475 133.223,80.475 122.181 C 80.475 115.093,79.885 115.617,87.874 115.617 C 95.727 115.617,95.285 115.255,95.287 121.697 C 95.289 126.087,95.551 127.232,96.868 128.588 C 99.369 131.163,104.054 129.914,105.136 126.383 C 105.585 124.917,105.803 116.401,105.991 92.853 C 106.178 69.649,106.116 71.806,106.605 71.449 C 107.171 71.035,119.890 71.002,120.231 71.413 M193.258 72.049 C 192.926 72.381,192.700 73.004,192.508 74.113 C 192.358 74.987,192.137 76.161,192.016 76.723 C 191.896 77.285,191.720 78.286,191.624 78.947 C 191.529 79.608,191.394 80.434,191.325 80.783 C 191.204 81.397,190.880 83.066,190.235 86.395 C 190.066 87.268,189.788 88.570,189.617 89.288 C 189.446 90.006,189.307 90.809,189.307 91.073 C 189.307 91.337,189.213 91.845,189.099 92.203 C 188.985 92.561,188.602 94.426,188.248 96.347 C 187.895 98.269,187.458 100.603,187.278 101.535 C 186.636 104.865,186.543 105.364,186.317 106.723 C 186.191 107.480,186.017 108.528,185.930 109.052 C 185.702 110.420,185.290 112.597,185.041 113.753 C 184.923 114.300,184.742 115.253,184.640 115.871 C 184.430 117.135,184.063 118.955,183.795 120.064 C 183.650 120.662,182.885 124.629,182.224 128.216 C 182.160 128.565,181.956 129.614,181.771 130.545 C 181.300 132.915,180.684 136.320,180.199 139.227 C 180.063 140.042,179.846 141.075,179.718 141.522 C 179.270 143.087,179.005 143.032,187.258 143.094 L 194.587 143.150 194.918 142.645 C 195.100 142.368,195.342 141.342,195.457 140.366 C 195.572 139.390,195.757 138.211,195.869 137.745 C 195.981 137.279,196.075 136.499,196.078 136.012 C 196.080 135.524,196.184 134.858,196.309 134.531 C 196.433 134.204,196.618 133.174,196.720 132.241 C 196.932 130.303,197.236 128.580,197.394 128.422 C 197.482 128.334,206.246 128.221,207.003 128.299 C 207.248 128.324,207.666 130.119,207.946 132.345 C 208.041 133.102,208.222 133.990,208.347 134.318 C 208.473 134.646,208.576 135.286,208.576 135.741 C 208.576 136.196,208.712 137.262,208.878 138.109 C 209.044 138.957,209.274 140.299,209.390 141.090 C 209.714 143.307,209.099 143.145,217.152 143.145 C 225.815 143.145,225.050 143.674,224.036 138.380 C 223.947 137.914,223.711 136.675,223.511 135.627 C 223.311 134.579,223.020 133.102,222.864 132.345 C 222.501 130.578,222.398 130.060,221.997 128.004 C 221.816 127.073,221.541 125.691,221.387 124.934 C 220.542 120.794,220.223 119.087,220.002 117.522 C 219.894 116.765,219.711 115.717,219.595 115.193 C 219.478 114.669,219.234 113.383,219.052 112.335 C 218.870 111.286,218.638 110.000,218.537 109.476 C 218.436 108.952,218.197 107.665,218.007 106.617 C 217.817 105.569,217.528 104.044,217.365 103.229 C 217.201 102.414,216.863 100.699,216.614 99.418 C 216.364 98.137,216.023 96.421,215.855 95.606 C 215.687 94.791,215.461 93.529,215.353 92.802 C 215.245 92.075,215.058 91.295,214.937 91.069 C 214.816 90.843,214.717 90.342,214.717 89.956 C 214.718 89.570,214.582 88.634,214.415 87.877 C 214.249 87.120,213.959 85.596,213.771 84.489 C 213.583 83.383,213.344 82.049,213.240 81.525 C 212.958 80.104,212.556 77.944,212.374 76.866 C 211.359 70.877,212.684 71.572,202.287 71.572 L 193.734 71.572 193.258 72.049 M233.147 71.982 C 232.778 72.671,232.847 142.603,233.217 142.910 C 233.424 143.081,235.701 143.134,241.211 143.094 L 248.915 143.039 249.044 132.663 C 249.116 126.956,249.187 119.881,249.203 116.940 L 249.232 111.593 251.122 111.593 L 253.011 111.593 253.218 112.282 C 253.457 113.074,254.335 116.516,254.853 118.687 C 255.047 119.502,255.334 120.598,255.490 121.122 C 255.645 121.646,256.076 123.409,256.446 125.040 C 256.816 126.670,257.775 130.672,258.577 133.933 C 259.380 137.194,260.142 140.291,260.270 140.815 C 260.399 141.339,260.634 142.078,260.794 142.456 L 261.084 143.145 269.108 143.145 C 275.968 143.145,277.170 143.099,277.394 142.828 C 277.700 142.460,277.688 142.393,276.680 138.909 C 276.259 137.454,275.764 135.738,275.580 135.098 C 275.395 134.457,275.170 133.695,275.079 133.404 C 274.988 133.113,274.746 132.303,274.542 131.604 C 274.337 130.905,274.077 130.048,273.966 129.698 C 273.854 129.349,273.631 128.587,273.471 128.004 C 273.311 127.422,272.930 126.040,272.625 124.934 C 272.320 123.827,271.993 122.589,271.898 122.181 C 271.803 121.773,271.477 120.582,271.173 119.534 C 270.870 118.486,270.514 117.247,270.384 116.781 C 270.016 115.471,269.537 113.903,269.217 112.963 C 269.056 112.493,268.925 111.956,268.925 111.769 C 268.925 111.583,268.783 111.157,268.609 110.824 C 267.944 109.548,268.165 108.752,269.402 107.970 C 274.622 104.667,276.550 100.162,276.595 91.159 C 276.637 82.621,274.113 77.298,268.819 74.765 C 266.287 73.553,265.609 73.266,265.283 73.266 C 265.120 73.266,264.896 73.189,264.786 73.095 C 264.544 72.888,262.126 72.343,259.472 71.897 C 256.183 71.345,233.449 71.418,233.147 71.982 M297.365 71.709 C 296.950 71.877,296.790 72.533,295.713 78.454 C 295.523 79.502,295.188 81.218,294.969 82.266 C 294.750 83.314,294.463 84.791,294.330 85.548 C 294.032 87.250,293.597 89.598,293.191 91.689 C 293.022 92.562,292.544 95.135,292.130 97.406 C 291.259 102.186,291.338 101.767,290.785 104.500 C 290.550 105.664,290.145 107.761,289.885 109.158 C 289.625 110.556,288.851 114.546,288.164 118.025 C 287.477 121.504,286.827 124.934,286.720 125.648 C 286.537 126.856,286.263 128.356,285.552 132.028 C 284.156 139.246,283.742 141.661,283.794 142.298 L 283.854 143.039 291.309 143.094 C 299.667 143.157,298.996 143.286,299.292 141.556 C 299.868 138.186,300.480 134.349,300.996 130.873 C 301.177 129.655,301.425 128.559,301.547 128.437 C 301.840 128.145,310.596 128.136,310.992 128.428 C 311.264 128.628,311.432 129.468,312.537 136.157 C 313.429 141.558,313.636 142.609,313.855 142.873 C 314.030 143.084,315.681 143.145,321.247 143.145 C 329.311 143.145,329.145 143.179,328.667 141.602 C 328.463 140.928,327.897 137.990,326.620 130.969 C 326.451 130.037,326.179 128.608,326.016 127.792 C 325.325 124.332,325.008 122.641,324.843 121.546 C 324.747 120.905,324.476 119.428,324.242 118.264 C 324.007 117.099,323.658 115.241,323.465 114.134 C 323.271 113.028,322.983 111.503,322.824 110.746 C 322.417 108.806,322.140 107.389,321.647 104.711 C 321.045 101.447,320.816 100.257,320.488 98.677 C 320.331 97.920,320.050 96.443,319.865 95.394 C 319.679 94.346,319.436 93.012,319.323 92.430 C 319.127 91.414,318.882 90.093,318.164 86.183 C 317.982 85.193,317.632 83.383,317.387 82.160 C 317.142 80.937,316.812 79.174,316.654 78.242 C 315.909 73.862,315.450 72.010,315.046 71.754 C 314.758 71.571,297.809 71.528,297.365 71.709 M210.568 71.988 C 210.863 72.101,211.153 72.410,211.211 72.676 C 211.270 72.943,211.562 74.494,211.861 76.125 C 212.159 77.755,212.491 79.518,212.597 80.042 C 212.703 80.566,213.082 82.567,213.440 84.489 C 214.082 87.940,214.201 88.572,214.796 91.689 C 214.962 92.562,215.251 94.087,215.437 95.077 C 215.623 96.067,216.007 98.068,216.290 99.524 C 216.574 100.979,216.964 103.028,217.157 104.076 C 217.967 108.482,218.147 109.448,218.442 110.958 C 218.862 113.107,219.095 114.335,219.487 116.464 C 219.669 117.454,219.954 118.978,220.120 119.852 C 220.286 120.725,220.473 121.726,220.537 122.075 C 220.838 123.729,221.276 126.052,221.596 127.687 C 222.112 130.318,222.536 132.518,222.759 133.722 C 223.172 135.942,223.604 138.234,223.939 139.968 C 224.560 143.183,225.152 142.926,217.139 142.930 C 209.615 142.933,210.025 143.038,209.683 141.027 C 209.422 139.495,208.927 136.454,208.443 133.404 C 207.445 127.125,208.304 127.898,202.329 127.898 C 196.640 127.898,197.144 127.698,196.738 130.122 C 196.601 130.937,196.387 132.176,196.262 132.875 C 196.137 133.573,195.953 134.717,195.854 135.416 C 195.754 136.114,195.522 137.639,195.339 138.804 C 195.155 139.968,194.948 141.282,194.880 141.723 C 194.690 142.937,194.645 142.944,187.039 142.883 L 180.095 142.827 180.145 141.662 C 180.173 141.022,180.427 139.354,180.709 137.957 C 180.992 136.559,181.477 134.082,181.788 132.451 C 182.099 130.821,182.482 128.819,182.640 128.004 C 182.798 127.189,183.127 125.426,183.372 124.087 C 183.617 122.747,183.900 121.223,184.002 120.699 C 184.374 118.777,184.895 116.108,185.180 114.664 C 185.342 113.849,185.626 112.324,185.813 111.276 C 185.999 110.228,186.244 108.941,186.356 108.417 C 186.469 107.893,186.937 105.463,187.396 103.017 C 188.127 99.125,188.961 94.714,190.077 88.830 C 190.253 87.898,190.527 86.469,190.684 85.654 C 190.841 84.839,191.129 83.314,191.324 82.266 C 191.520 81.218,191.806 79.693,191.961 78.878 C 193.296 71.838,193.183 72.248,193.830 72.100 C 195.088 71.811,209.842 71.712,210.568 71.988 M258.655 72.227 C 270.833 73.383,276.332 79.227,276.336 91.015 C 276.339 99.757,273.777 105.373,268.555 108.072 C 267.546 108.594,267.357 107.592,270.625 119.005 C 271.341 121.509,272.247 124.701,272.637 126.098 C 273.027 127.496,273.693 129.831,274.118 131.286 C 274.543 132.742,275.030 134.457,275.201 135.098 C 275.372 135.738,275.888 137.565,276.348 139.158 C 277.289 142.416,277.317 142.624,276.849 142.804 C 276.665 142.875,273.141 142.933,269.019 142.933 L 261.524 142.933 261.213 142.456 C 261.042 142.194,260.801 141.503,260.678 140.921 C 260.554 140.339,260.217 138.957,259.928 137.851 C 259.382 135.760,258.216 131.062,256.934 125.781 C 256.523 124.092,256.052 122.163,255.886 121.493 C 255.436 119.674,254.972 117.734,254.759 116.781 C 253.539 111.314,253.444 111.170,251.034 111.170 C 248.577 111.170,248.809 109.504,248.809 127.177 C 248.809 141.114,248.775 142.689,248.474 142.804 C 247.463 143.192,233.578 142.934,233.358 142.523 C 233.123 142.084,233.036 73.354,233.270 72.484 C 233.338 72.228,233.551 71.983,233.743 71.940 C 234.513 71.768,256.484 72.021,258.655 72.227 M314.741 72.055 C 314.945 72.203,315.196 72.704,315.300 73.166 C 315.463 73.892,318.156 88.084,319.317 94.336 C 320.496 100.689,323.840 118.336,324.192 120.064 C 324.417 121.170,325.131 124.934,325.779 128.428 C 327.798 139.323,328.016 140.472,328.233 141.419 C 328.592 142.984,328.827 142.933,321.235 142.933 C 313.440 142.933,313.996 143.103,313.620 140.603 C 312.766 134.931,311.618 128.387,311.438 128.163 C 311.060 127.695,301.691 127.793,301.283 128.269 C 300.991 128.610,300.711 130.162,299.195 139.829 C 298.657 143.263,299.488 142.933,291.371 142.933 C 283.460 142.933,283.768 143.002,284.137 141.298 C 284.335 140.383,284.493 139.559,285.042 136.580 C 285.138 136.056,285.352 134.913,285.516 134.039 C 285.681 133.166,286.118 130.831,286.489 128.851 C 287.598 122.920,289.036 115.398,289.362 113.817 C 289.672 112.312,290.342 108.808,291.161 104.394 C 291.410 103.055,291.841 100.768,292.119 99.312 C 292.397 97.856,293.299 93.092,294.125 88.724 C 294.950 84.357,295.717 80.355,295.828 79.831 C 295.940 79.307,296.274 77.544,296.572 75.913 C 297.248 72.202,297.243 72.218,297.795 71.995 C 298.575 71.681,314.305 71.736,314.741 72.055 M249.015 82.915 C 248.677 83.806,248.744 101.259,249.088 101.730 C 249.563 102.380,255.687 102.128,257.294 101.391 C 260.248 100.038,261.715 97.022,261.722 92.285 C 261.734 84.739,259.445 82.399,252.033 82.379 L 249.222 82.372 249.015 82.915 M257.843 83.639 C 262.231 86.056,262.870 96.440,258.845 99.908 C 257.156 101.363,252.205 102.379,249.775 101.769 L 249.232 101.633 249.232 92.355 C 249.232 87.252,249.304 83.002,249.391 82.911 C 249.900 82.377,256.600 82.954,257.843 83.639 M201.941 92.962 C 201.881 93.368,201.685 94.844,201.505 96.241 C 201.050 99.785,200.193 106.037,199.459 111.174 C 199.118 113.564,198.814 116.137,198.784 116.892 L 198.729 118.264 202.116 118.322 C 205.834 118.387,206.108 118.301,205.929 117.126 C 205.883 116.820,205.692 115.474,205.506 114.134 C 205.320 112.795,205.083 111.175,204.980 110.535 C 204.876 109.894,204.734 108.846,204.663 108.205 C 204.593 107.565,204.445 106.421,204.335 105.664 C 203.767 101.763,203.136 97.113,202.750 93.994 C 202.575 92.579,202.089 91.959,201.941 92.962 M306.011 93.515 C 305.893 93.966,305.601 95.765,305.363 97.512 C 304.799 101.648,303.514 111.035,303.088 114.134 C 302.903 115.474,302.741 116.951,302.726 117.417 L 302.700 118.264 306.068 118.370 C 310.540 118.510,310.214 118.945,309.494 113.792 C 309.170 111.476,308.488 106.580,307.978 102.912 C 306.474 92.095,306.433 91.896,306.011 93.515 M202.734 96.136 C 202.811 96.893,202.963 98.084,203.071 98.782 C 203.286 100.160,203.636 102.783,203.920 105.135 C 204.269 108.027,205.315 115.700,205.526 116.920 C 205.725 118.069,205.228 118.170,200.240 117.991 L 198.998 117.946 199.107 116.623 C 199.166 115.895,199.319 114.680,199.445 113.923 C 199.749 112.103,200.037 110.111,200.425 107.147 C 200.830 104.062,201.333 100.272,201.592 98.359 C 201.703 97.544,201.856 96.231,201.932 95.443 C 202.106 93.646,202.518 94.002,202.734 96.136 M306.650 96.184 C 306.750 96.798,307.070 99.063,307.360 101.218 C 307.650 103.372,308.086 106.517,308.330 108.205 C 308.574 109.894,308.850 111.848,308.945 112.546 C 309.039 113.245,309.234 114.643,309.378 115.652 C 309.755 118.284,309.900 118.158,306.504 118.158 C 303.010 118.158,302.799 118.078,303.033 116.842 C 303.127 116.343,303.356 114.791,303.541 113.393 C 303.951 110.301,304.440 106.879,304.737 105.029 C 304.859 104.272,305.041 102.938,305.143 102.065 C 305.642 97.776,306.159 94.760,306.361 94.961 C 306.419 95.020,306.550 95.570,306.650 96.184 M342.876 113.499 C 342.876 113.907,342.920 114.074,342.973 113.870 C 343.026 113.666,343.026 113.332,342.973 113.129 C 342.920 112.925,342.876 113.092,342.876 113.499 M342.914 132.133 C 342.914 134.172,342.946 135.005,342.985 133.986 C 343.023 132.967,343.023 131.300,342.985 130.281 C 342.946 129.262,342.914 130.095,342.914 132.133 M342.695 140.561 C 342.712 140.918,342.797 141.280,342.883 141.365 C 343.103 141.585,343.071 140.559,342.847 140.205 C 342.721 140.006,342.672 140.118,342.695 140.561 M130.069 167.020 C 134.232 167.052,141.046 167.052,145.209 167.020 C 149.373 166.987,145.966 166.961,137.639 166.961 C 129.312 166.961,125.905 166.987,130.069 167.020 " stroke="none" fill="#9598b6" fill-rule="evenodd"></path></g></svg>