<?xml version="1.0" encoding="UTF-8"?>
<svg version="1.1" xmlns="http://www.w3.org/2000/svg" width="218" height="192">
<path d="M0 0 C0.69026822 -0.00438225 1.38053645 -0.00876451 2.09172189 -0.01327956 C4.41616162 -0.02668668 6.74056342 -0.03285075 9.06503296 -0.03897095 C10.72720512 -0.04687058 12.38937556 -0.05513944 14.05154419 -0.06375122 C19.52135577 -0.08999328 24.99117507 -0.1052837 30.46102905 -0.11953735 C32.34357076 -0.12489664 34.22611242 -0.13027415 36.10865402 -0.13566971 C43.94075418 -0.15730402 51.77285226 -0.17603981 59.60497475 -0.1872921 C70.82957938 -0.20352383 82.05383741 -0.2366764 93.27831137 -0.29369295 C101.16970659 -0.33241096 109.06100919 -0.35192715 116.95249689 -0.35721266 C121.66563862 -0.36086434 126.37841086 -0.37286551 131.09144974 -0.4053154 C135.52878598 -0.43542783 139.96552981 -0.44169665 144.40294647 -0.42993164 C146.0282932 -0.42971115 147.65366766 -0.43799584 149.27891922 -0.45558548 C165.43204098 -0.62083488 165.43204098 -0.62083488 171.35946655 5.15390015 C175.81365307 10.75018577 176.48142461 14.76050724 176.50663757 21.76919556 C176.51031426 22.43258776 176.51399095 23.09597997 176.51777905 23.77947497 C176.5287864 26.00097094 176.53265469 28.22242009 176.53646851 30.44393921 C176.54273536 32.03744148 176.54938235 33.6309423 176.55638123 35.22444153 C176.57739659 40.45612576 176.58778083 45.68781021 176.5977478 50.91952515 C176.60179621 52.72220627 176.60591316 54.52488724 176.61009789 56.32756805 C176.62914352 64.79686045 176.64337622 73.26614416 176.65170985 81.73545384 C176.66148216 91.50492352 176.68780413 101.27416661 176.72821075 111.04355645 C176.75838805 118.59954018 176.77318024 126.15545902 176.77649087 133.71150184 C176.77883938 138.22223199 176.78777402 142.73271991 176.81295204 147.24338531 C176.83626631 151.48863375 176.84045262 155.73348102 176.83019066 159.97877693 C176.82969601 161.53316395 176.83599548 163.08757094 176.8497467 164.6418972 C176.98687321 181.06606089 176.98687321 181.06606089 172.35946655 186.15390015 C164.69899439 193.26783168 155.87013404 193.00172377 146.02108765 192.89852905 C144.38728409 192.90339294 142.75348651 192.91083939 141.1197052 192.9206543 C136.7084219 192.93936767 132.29803425 192.9207134 127.88682127 192.89399004 C123.25812473 192.87125363 118.62946882 192.87958411 114.00073242 192.88348389 C106.23181635 192.88524612 98.46325054 192.86316318 90.69442749 192.82626343 C81.72492598 192.78390354 72.75593668 192.77691678 63.78635538 192.78938735 C55.13866658 192.80079264 46.49115732 192.78946417 37.84349442 192.76704025 C34.17142018 192.75777505 30.49945622 192.75598885 26.8273735 192.76021194 C22.50151526 192.7639908 18.17617533 192.74767122 13.85043526 192.71609116 C12.26705254 192.70763731 10.68361706 192.7058829 9.10022163 192.71147156 C-7.96922289 192.76256141 -7.96922289 192.76256141 -14.17904091 186.63602638 C-17.45424771 182.87355401 -18.75393661 180.4721624 -18.86172485 175.57870483 C-18.89639359 174.11502724 -18.89639359 174.11502724 -18.9317627 172.6217804 C-18.95167267 171.53409866 -18.97158264 170.44641693 -18.99209595 169.32577515 C-19.01579254 168.16207901 -19.03948914 166.99838287 -19.06390381 165.79942322 C-19.13953354 161.8343631 -19.20440581 157.86920315 -19.26553345 153.90390015 C-19.27643509 153.22108852 -19.28733673 152.5382769 -19.29856873 151.83477402 C-19.76181974 122.53800215 -19.64687776 93.24309582 -19.41603851 63.94456482 C-19.39050825 60.46296398 -19.37043071 56.98136929 -19.35177612 53.49972534 C-19.32112839 47.96239377 -19.27499792 42.42539834 -19.21691513 36.8882885 C-19.19741034 34.82514413 -19.18279078 32.76194717 -19.17331314 30.69873238 C-19.15903904 27.85442991 -19.12628032 25.01091746 -19.08877563 22.1668396 C-19.08864283 21.33662167 -19.08851002 20.50640373 -19.08837318 19.65102768 C-18.98468298 13.92457155 -17.95071628 9.60814784 -13.8866272 5.2906189 C-13.28979126 4.81237671 -12.69295532 4.33413452 -12.07803345 3.84140015 C-11.47861938 3.35026733 -10.87920532 2.85913452 -10.2616272 2.3531189 C-6.81874282 -0.19378593 -4.24632437 0.0190605 0 0 Z " fill="#D8D8D8" transform="translate(29.640533447265625,-0.153900146484375)"/>
<path d="M0 0 C21 0 21 0 27 3 C29.23409006 5.23409006 29.91661805 6.4588348 30.3984375 9.5859375 C30.35239564 15.06491907 30.29266051 19.3658852 27 24 C26.01 24.33 25.02 24.66 24 25 C24.31807617 25.97610229 24.31807617 25.97610229 24.64257812 26.97192383 C25.59958001 29.91733376 26.54986142 32.8648693 27.5 35.8125 C27.83386719 36.83666016 28.16773438 37.86082031 28.51171875 38.91601562 C28.82753906 39.89892578 29.14335937 40.88183594 29.46875 41.89453125 C29.90864258 43.25348511 29.90864258 43.25348511 30.35742188 44.63989258 C31 47 31 47 31 50 C27.04 50 23.08 50 19 50 C18.51080078 47.63521484 18.51080078 47.63521484 18.01171875 45.22265625 C17.5710059 43.1691219 17.12956187 41.11574437 16.6875 39.0625 C16.36749023 37.50112305 16.36749023 37.50112305 16.04101562 35.90820312 C15.82509766 34.91884766 15.60917969 33.92949219 15.38671875 32.91015625 C15.19295654 31.99371338 14.99919434 31.07727051 14.79956055 30.13305664 C14.53570557 29.42914795 14.27185059 28.72523926 14 28 C13.01 27.67 12.02 27.34 11 27 C11 34.59 11 42.18 11 50 C7.37 50 3.74 50 0 50 C0 33.5 0 17 0 0 Z " fill="#3A3F7B" transform="translate(126,70)"/>
<path d="M0 0 C3.63 0 7.26 0 11 0 C11.33 13.53 11.66 27.06 12 41 C13.32 41.33 14.64 41.66 16 42 C18.15456969 39.84543031 17.26026626 34.9288373 17.31640625 31.93359375 C17.33718735 31.02497086 17.35796844 30.11634796 17.37937927 29.18019104 C17.44497672 26.26604054 17.5038068 23.35179696 17.5625 20.4375 C17.60567554 18.46678709 17.64928951 16.49608374 17.69335938 14.52539062 C17.80066843 9.68369012 17.90190675 4.84189563 18 0 C21.63 0 25.26 0 29 0 C29.07434992 5.72913803 29.12869672 11.45799301 29.16479492 17.1875 C29.17984899 19.13514094 29.2002968 21.08274816 29.22631836 23.03027344 C29.26285053 25.83537128 29.27976033 28.64001954 29.29296875 31.4453125 C29.30845261 32.31116974 29.32393646 33.17702698 29.33988953 34.06912231 C29.34128971 39.13859722 28.82734097 42.61113286 26 47 C22.1468833 50.16410451 18.9044646 50.43221502 14 50.4375 C12.205625 50.46650391 12.205625 50.46650391 10.375 50.49609375 C6.38417976 49.90948013 4.80611015 48.85120835 2 46 C0.2726038 43.12302569 -0.24716927 41.03009819 -0.22705078 37.69042969 C-0.22689972 36.84986023 -0.22674866 36.00929077 -0.22659302 35.14324951 C-0.21627045 34.24519592 -0.20594788 33.34714233 -0.1953125 32.421875 C-0.1924826 31.4953009 -0.18965271 30.56872681 -0.18673706 29.61407471 C-0.17555611 26.65925091 -0.15045527 23.70473195 -0.125 20.75 C-0.11496751 18.74479605 -0.10584213 16.73958734 -0.09765625 14.734375 C-0.07562358 9.82279949 -0.04110795 4.91145141 0 0 Z " fill="#3C407D" transform="translate(54,69)"/>
<path d="M0 0 C4.29 0 8.58 0 13 0 C13.96164501 5.19180688 14.92186982 10.38387384 15.88085938 15.57617188 C16.20632889 17.33730927 16.53216598 19.09837878 16.85839844 20.859375 C18.65530217 30.56045034 20.41936792 40.26075182 22 50 C18.37 50 14.74 50 11 50 C10.67 46.37 10.34 42.74 10 39 C7.36 39 4.72 39 2 39 C1.67 42.63 1.34 46.26 1 50 C-2.63 50 -6.26 50 -10 50 C-9.33372556 44.30616163 -8.46916363 38.68589778 -7.44140625 33.046875 C-7.29219223 32.22423157 -7.14297821 31.40158813 -6.98924255 30.55401611 C-6.67530701 28.82940345 -6.36010987 27.10502001 -6.04370117 25.38085938 C-5.56150265 22.74454722 -5.08829444 20.10671521 -4.61523438 17.46875 C-4.30784303 15.7863575 -3.99991897 14.10406223 -3.69140625 12.421875 C-3.55174942 11.63641296 -3.41209259 10.85095093 -3.26820374 10.04168701 C-2.56587496 6.26900675 -1.73636458 3.47272917 0 0 Z " fill="#3C407D" transform="translate(98,70)"/>
<path d="M0 0 C4.29 0 8.58 0 13 0 C14.28791836 6.31589987 15.56948679 12.63304256 16.84521484 18.95141602 C17.27999836 21.1002063 17.71650811 23.24864806 18.15478516 25.39672852 C18.78483093 28.48623867 19.40863689 31.57695329 20.03125 34.66796875 C20.22811401 35.62648239 20.42497803 36.58499603 20.62780762 37.57255554 C20.89808777 38.92338982 20.89808777 38.92338982 21.17382812 40.30151367 C21.33371216 41.08983078 21.49359619 41.87814789 21.6583252 42.69035339 C22 45 22 45 22 50 C18.37 50 14.74 50 11 50 C11 46.37 11 42.74 11 39 C8.36 39 5.72 39 3 39 C2.34 42.63 1.68 46.26 1 50 C-2.3 50 -5.6 50 -9 50 C-8.44223211 40.40949101 -6.86629381 31.2227193 -4.98876953 21.82373047 C-4.49423631 19.34612398 -4.01007996 16.86664815 -3.52734375 14.38671875 C-3.21673961 12.80717479 -2.90556329 11.22774321 -2.59375 9.6484375 C-2.44893188 8.90894867 -2.30411377 8.16945984 -2.15490723 7.40756226 C-1.11638863 2.23277726 -1.11638863 2.23277726 0 0 Z " fill="#3A3E7B" transform="translate(171,70)"/>
<path d="M0 0 C3.3 0 6.6 0 10 0 C10.14883824 5.85315939 10.2574473 11.70520644 10.32958984 17.55981445 C10.3596767 19.54926757 10.40055754 21.53858898 10.45263672 23.52758789 C10.52581125 26.39502515 10.55953679 29.26070244 10.5859375 32.12890625 C10.61690521 33.01147598 10.64787292 33.89404572 10.67977905 34.80335999 C10.68289423 40.57984102 9.50786375 43.54049314 5.48721313 47.71812439 C2.3778579 50.39817511 -0.30022481 50.22616565 -4.3125 50.3125 C-5.44300781 50.34988281 -6.57351562 50.38726562 -7.73828125 50.42578125 C-11.66878839 49.91269709 -13.20198844 48.74848923 -16 46 C-18.35119399 42.47320901 -18.21443452 40.97120515 -18.125 36.8125 C-18.10695313 35.72582031 -18.08890625 34.63914063 -18.0703125 33.51953125 C-18.04710938 32.68808594 -18.02390625 31.85664062 -18 31 C-14.7 31 -11.4 31 -8 31 C-7.67 34.3 -7.34 37.6 -7 41 C-5.02 40.34 -3.04 39.68 -1 39 C-0.67 26.13 -0.34 13.26 0 0 Z " fill="#373C7C" transform="translate(36,69)"/>
<path d="M0 0 C1.46028631 2.70543417 2.37236507 5.12463528 2.96142578 8.13842773 C3.12144073 8.94283798 3.28145569 9.74724823 3.44631958 10.57603455 C3.61098724 11.43652908 3.77565491 12.29702362 3.9453125 13.18359375 C4.12005096 14.07611343 4.29478943 14.96863312 4.474823 15.88819885 C4.84234583 17.77297595 5.20695437 19.65832334 5.56884766 21.54418945 C6.12258717 24.42494756 6.6875461 27.3033403 7.25390625 30.18164062 C7.61004859 32.01549431 7.96553912 33.84947473 8.3203125 35.68359375 C8.48902863 36.54206406 8.65774475 37.40053436 8.83157349 38.28501892 C8.98528412 39.09258133 9.13899475 39.90014374 9.29736328 40.73217773 C9.43345001 41.43737045 9.56953674 42.14256317 9.70974731 42.86912537 C10 45 10 45 10 50 C6.37 50 2.74 50 -1 50 C-1 45.71 -1 41.42 -1 37 C-1.99 36.67 -2.98 36.34 -4 36 C-3.67 35.01 -3.34 34.02 -3 33 C-4.65 33 -6.3 33 -8 33 C-7.85820962 30.77057252 -7.71140302 28.54146372 -7.5625 26.3125 C-7.48128906 25.07113281 -7.40007812 23.82976562 -7.31640625 22.55078125 C-7.05508683 19.61819663 -6.65201621 16.86558383 -6 14 C-5.34 14.66 -4.68 15.32 -4 16 C-4.33 13.69 -4.66 11.38 -5 9 C-3.68 8.67 -2.36 8.34 -1 8 C-1.020625 6.865625 -1.04125 5.73125 -1.0625 4.5625 C-1 1 -1 1 0 0 Z " fill="#3E427C" transform="translate(183,70)"/>
<path d="M0 0 C5.82681177 0.25389158 9.74415528 0.61116013 14 5 C15.96267571 8.92535142 15.34478017 13.71141861 15 18 C13.46696367 22.1610986 12.69096643 23.53935571 9 26 C7.78715124 29.05429073 7.78715124 29.05429073 7 32 C6.34 31.34 5.68 30.68 5 30 C5 28.68 5 27.36 5 26 C3.68 26.33 2.36 26.66 1 27 C0.87625 26.360625 0.7525 25.72125 0.625 25.0625 C0.41875 24.381875 0.2125 23.70125 0 23 C-0.66 22.67 -1.32 22.34 -2 22 C-2.33 22.66 -2.66 23.32 -3 24 C-4.53266582 20.93466836 -4.10276471 17.73245728 -4.0625 14.375 C-4.05798828 13.66859375 -4.05347656 12.9621875 -4.04882812 12.234375 C-4.03703875 10.48954725 -4.01910324 8.744763 -4 7 C-2.02 7 -0.04 7 2 7 C2 6.34 2 5.68 2 5 C1.34 4.67 0.68 4.34 0 4 C0 2.68 0 1.36 0 0 Z " fill="#393D7C" transform="translate(141,70)"/>
<path d="M0 0 C1.32 0.33 2.64 0.66 4 1 C4.67363372 3.72761511 5.33909444 6.456799 6 9.1875 C6.28617188 10.34088867 6.28617188 10.34088867 6.578125 11.51757812 C6.75859375 12.26845703 6.9390625 13.01933594 7.125 13.79296875 C7.29257813 14.4789917 7.46015625 15.16501465 7.6328125 15.87182617 C8 18 8 18 8 23 C11.63 23 15.26 23 19 23 C19 23.33 19 23.66 19 24 C17.14591875 24.02740022 15.29171531 24.04657422 13.4375 24.0625 C12.40496094 24.07410156 11.37242187 24.08570312 10.30859375 24.09765625 C7 24 7 24 0 23 C0 15.41 0 7.82 0 0 Z " fill="#D8D9E0" transform="translate(137,97)"/>
<path d="M0 0 C6 0 6 0 7.875 1 C9.68498652 4.21775381 9.67345584 7.40823552 9 11 C7.3125 13 7.3125 13 5 14 C3.35 14 1.7 14 0 14 C0 9.38 0 4.76 0 0 Z " fill="#CFD1DE" transform="translate(137,77)"/>
<path d="M0 0 C2.64 0 5.28 0 8 0 C8.14285714 7.42857143 8.14285714 7.42857143 7 11 C5.329375 11.2165625 5.329375 11.2165625 3.625 11.4375 C0.17857953 11.78372035 0.17857953 11.78372035 -2 13 C-2.19294408 8.17639811 -1.75747614 4.50353262 0 0 Z " fill="#CBCDD5" transform="translate(174,109)"/>
<path d="M0 0 C3.63 0 7.26 0 11 0 C10.67 2.64 10.34 5.28 10 8 C9.01 8.33 8.02 8.66 7 9 C6.01 10.485 6.01 10.485 5 12 C4.34 12 3.68 12 3 12 C2.67 11.34 2.34 10.68 2 10 C1.01 10 0.02 10 -1 10 C-0.67 6.7 -0.34 3.4 0 0 Z " fill="#343A7B" transform="translate(172,70)"/>
<path d="M0 0 C3.3 0 6.6 0 10 0 C10 12.21 10 24.42 10 37 C9.67 37 9.34 37 9 37 C9 25.45 9 13.9 9 2 C6.69 2.33 4.38 2.66 2 3 C1.67 14.55 1.34 26.1 1 38 C0.67 38 0.34 38 0 38 C0 25.46 0 12.92 0 0 Z " fill="#30336B" transform="translate(73,69)"/>
<path d="M0 0 C0.99 0.33 1.98 0.66 3 1 C3 1.66 3 2.32 3 3 C4.32 2.67 5.64 2.34 7 2 C7 4.31 7 6.62 7 9 C3.04 9 -0.92 9 -5 9 C-5.33 6.69 -5.66 4.38 -6 2 C-3.525 2.495 -3.525 2.495 -1 3 C-0.67 2.01 -0.34 1.02 0 0 Z " fill="#ADA38C" transform="translate(40,56)"/>
<path d="M0 0 C3.3 0 6.6 0 10 0 C10 13.86 10 27.72 10 42 C9.67 42 9.34 42 9 42 C9 28.8 9 15.6 9 2 C6.69 2.33 4.38 2.66 2 3 C1.67 9.27 1.34 15.54 1 22 C0.67 22 0.34 22 0 22 C0 14.74 0 7.48 0 0 Z " fill="#444678" transform="translate(36,69)"/>
<path d="M0 0 C2.64 0 5.28 0 8 0 C9.17571451 3.67410785 9.07366746 7.16929183 9 11 C8.34 10.67 7.68 10.34 7 10 C7 8.68 7 7.36 7 6 C4.55519921 6.18828772 4.55519921 6.18828772 2 7 C0.63979849 8.96758273 0.63979849 8.96758273 0 11 C-0.33 11 -0.66 11 -1 11 C-1.14285714 3.57142857 -1.14285714 3.57142857 0 0 Z " fill="#D0D3D9" transform="translate(100,109)"/>
<path d="M0 0 C2.97 0 5.94 0 9 0 C9 2.64 9 5.28 9 8 C8.67 7.01 8.34 6.02 8 5 C7.34 6.32 6.68 7.64 6 9 C5.34 9 4.68 9 4 9 C3.67 10.32 3.34 11.64 3 13 C1.70074209 8.66914029 0.656379 4.48525648 0 0 Z " fill="#333978" transform="translate(19,101)"/>
<path d="M0 0 C1.32 0.33 2.64 0.66 4 1 C4.69888677 3.74755487 5.3843988 6.49731197 6.0625 9.25 C6.26166016 10.02730469 6.46082031 10.80460937 6.66601562 11.60546875 C6.84970703 12.35957031 7.03339844 13.11367187 7.22265625 13.890625 C7.39547119 14.58188477 7.56828613 15.27314453 7.74633789 15.98535156 C8.03156637 18.25070809 7.68076195 19.8368312 7 22 C6.67 22 6.34 22 6 22 C6 19.69 6 17.38 6 15 C5.01 15.33 4.02 15.66 3 16 C0.67409146 12.36576791 0.83734167 9.22911669 1 5 C1.66 5 2.32 5 3 5 C3 4.01 3 3.02 3 2 C2.01 2 1.02 2 0 2 C0 1.34 0 0.68 0 0 Z " fill="#C7C9D5" transform="translate(137,97)"/>
<path d="M0 0 C0.33 0 0.66 0 1 0 C1.82810601 6.81508864 2.50413785 12.51870203 0 19 C-0.66 19 -1.32 19 -2 19 C-2.33 20.65 -2.66 22.3 -3 24 C-4.64784469 21.03387957 -5.82919705 18.41605892 -6 15 C-5.401875 14.46375 -4.80375 13.9275 -4.1875 13.375 C-0.71700141 9.6070301 -0.64951595 4.95683222 0 0 Z " fill="#CCCFD8" transform="translate(156,80)"/>
<path d="M0 0 C0.33 0.66 0.66 1.32 1 2 C3.12576782 2.46651207 3.12576782 2.46651207 5.5625 2.625 C6.38878906 2.69976562 7.21507813 2.77453125 8.06640625 2.8515625 C8.70449219 2.90054688 9.34257813 2.94953125 10 3 C10 3.33 10 3.66 10 4 C6.7 4.33 3.4 4.66 0 5 C-0.33 17.54 -0.66 30.08 -1 43 C-1.33 43 -1.66 43 -2 43 C-2.21754131 37.68033396 -2.41430023 32.36045149 -2.59204102 27.03930664 C-2.65537423 25.2301797 -2.72433024 23.42124034 -2.79907227 21.61254883 C-2.90567872 19.00891861 -2.99188103 16.40527817 -3.07421875 13.80078125 C-3.11157639 12.99538406 -3.14893402 12.18998688 -3.18742371 11.36018372 C-3.31200877 6.68125684 -2.96293509 3.86366735 0 0 Z " fill="#DBDEE9" transform="translate(73,64)"/>
<path d="M0 0 C0.66 0 1.32 0 2 0 C2.89604368 6.04829486 3.11269443 11.8894576 3 18 C1.68 18 0.36 18 -1 18 C-1.11269443 11.8894576 -0.89604368 6.04829486 0 0 Z " fill="#BDC1D8" transform="translate(103,84)"/>
<path d="M0 0 C0.66 0 1.32 0 2 0 C2 2.64 2 5.28 2 8 C-1.63 8 -5.26 8 -9 8 C-8.34 7.67 -7.68 7.34 -7 7 C-7 5.68 -7 4.36 -7 3 C-5.5459375 2.5359375 -5.5459375 2.5359375 -4.0625 2.0625 C-1.15934208 1.30476658 -1.15934208 1.30476658 0 0 Z " fill="#343A79" transform="translate(109,100)"/>
<path d="M0 0 C0.66 0 1.32 0 2 0 C2 0.66 2 1.32 2 2 C3.65 1.34 5.3 0.68 7 0 C7.33 2.31 7.66 4.62 8 7 C5.03 7 2.06 7 -1 7 C-0.67 4.69 -0.34 2.38 0 0 Z " fill="#353973" transform="translate(184,112)"/>
<path d="M0 0 C0.33 0 0.66 0 1 0 C1.66 5.94 2.32 11.88 3 18 C1.35 18 -0.3 18 -2 18 C-1.34 12.06 -0.68 6.12 0 0 Z " fill="#D0D3E9" transform="translate(177,84)"/>
<path d="M0 0 C0.33 0.66 0.66 1.32 1 2 C3.97 1.34 6.94 0.68 10 0 C10 1.98 10 3.96 10 6 C6.7 6 3.4 6 0 6 C0 4.02 0 2.04 0 0 Z " fill="#4D4F80" transform="translate(162,114)"/>
<path d="M0 0 C0.33 0 0.66 0 1 0 C1.25 6.625 1.25 6.625 -1 10 C-7.03497364 11.54084433 -12.87377557 10.72008063 -19 10 C-19 9.67 -19 9.34 -19 9 C-17.78763672 8.94392578 -17.78763672 8.94392578 -16.55078125 8.88671875 C-15.48214844 8.82097656 -14.41351563 8.75523438 -13.3125 8.6875 C-11.72888672 8.60048828 -11.72888672 8.60048828 -10.11328125 8.51171875 C-6.71982562 7.95394875 -4.7480338 7.04139654 -2 5 C-0.65310085 2.42900598 -0.65310085 2.42900598 0 0 Z " fill="#C5C9D9" transform="translate(82,110)"/>
<path d="M0 0 C4.95 0 9.9 0 15 0 C17 5 17 5 17 6 C14.69 6 12.38 6 10 6 C10 4.66666667 10 3.33333333 10 2 C6.7 2 3.4 2 0 2 C0 1.34 0 0.68 0 0 Z " fill="#333771" transform="translate(126,70)"/>
<path d="M0 0 C0.33 0 0.66 0 1 0 C1 2.64 1 5.28 1 8 C-2.63 8 -6.26 8 -10 8 C-10 6.68 -10 5.36 -10 4 C-9.34 4 -8.68 4 -8 4 C-8 4.66 -8 5.32 -8 6 C-5.69 6 -3.38 6 -1 6 C-0.67 4.02 -0.34 2.04 0 0 Z " fill="#545682" transform="translate(98,112)"/>
<path d="M0 0 C0.99 0 1.98 0 3 0 C1.59460773 3.39636466 0.15256178 5.09982577 -3 7 C-5.796875 7.29296875 -5.796875 7.29296875 -8.75 7.1875 C-10.22726563 7.14689453 -10.22726563 7.14689453 -11.734375 7.10546875 C-12.85585938 7.05326172 -12.85585938 7.05326172 -14 7 C-14 6.67 -14 6.34 -14 6 C-11.03 6 -8.06 6 -5 6 C-5 5.34 -5 4.68 -5 4 C-4.01 4 -3.02 4 -2 4 C-1.34 2.68 -0.68 1.36 0 0 Z " fill="#383C6E" transform="translate(41,112)"/>
<path d="M0 0 C2.64 0 5.28 0 8 0 C8 0.66 8 1.32 8 2 C6.35 2 4.7 2 3 2 C2.01 4.97 1.02 7.94 0 11 C-0.33 11 -0.66 11 -1 11 C-1.14285714 3.57142857 -1.14285714 3.57142857 0 0 Z " fill="#CACCDD" transform="translate(100,109)"/>
<path d="M0 0 C0.46148438 0.34933594 0.92296875 0.69867188 1.3984375 1.05859375 C6.86068531 4.86921327 11.38742532 5.85094606 18 6 C18 6.33 18 6.66 18 7 C11.18401613 7.33278764 6.07877934 7.24201565 0 4 C0 2.68 0 1.36 0 0 Z " fill="#D6D9E7" transform="translate(19,114)"/>
<path d="M0 0 C1.32 0.66 2.64 1.32 4 2 C3.01 2.495 3.01 2.495 2 3 C2 3.66 2 4.32 2 5 C4.31 5 6.62 5 9 5 C9 5.33 9 5.66 9 6 C6.69 6 4.38 6 2 6 C1.67 6.99 1.34 7.98 1 9 C1 8.01 1 7.02 1 6 C0.01 6 -0.98 6 -2 6 C-1.125 1.125 -1.125 1.125 0 0 Z " fill="#444783" transform="translate(172,103)"/>
<path d="M0 0 C0.66 0 1.32 0 2 0 C1.67 4.95 1.34 9.9 1 15 C0.01 15 -0.98 15 -2 15 C-1.47462276 9.9697924 -0.89405214 4.98114761 0 0 Z " fill="#4C4E7F" transform="translate(165,98)"/>
<path d="M0 0 C0.99 0 1.98 0 3 0 C3 1.32 3 2.64 3 4 C3.66 4 4.32 4 5 4 C5.33 4.99 5.66 5.98 6 7 C3.3333581 8.33332095 1.83319697 7.67102033 -1 7 C-0.67 4.69 -0.34 2.38 0 0 Z " fill="#D7D7D7" transform="translate(139,82)"/>
<path d="M0 0 C0.99 0.33 1.98 0.66 3 1 C2.67 2.32 2.34 3.64 2 5 C3.65 4.67 5.3 4.34 7 4 C7 4.66 7 5.32 7 6 C3.7 6 0.4 6 -3 6 C-1.125 1.125 -1.125 1.125 0 0 Z " fill="#333874" transform="translate(149,113)"/>
<path d="M0 0 C0.33 0.99 0.66 1.98 1 3 C0.67 3.33 0.34 3.66 0 4 C0.66 4.66 1.32 5.32 2 6 C-0.97 6 -3.94 6 -7 6 C-4.53846154 1.2 -4.53846154 1.2 -1.8125 0.1875 C-0.9153125 0.0946875 -0.9153125 0.0946875 0 0 Z " fill="#333875" transform="translate(117,113)"/>
<path d="M0 0 C2.31 0 4.62 0 7 0 C7 1.65 7 3.3 7 5 C6.67 3.68 6.34 2.36 6 1 C5.34 1 4.68 1 4 1 C3.87625 1.804375 3.7525 2.60875 3.625 3.4375 C3.41875 4.283125 3.2125 5.12875 3 6 C2.01 6.495 2.01 6.495 1 7 C0.67 4.69 0.34 2.38 0 0 Z " fill="#D9DBE2" transform="translate(174,110)"/>
<path d="M0 0 C1.65 0 3.3 0 5 0 C5.66 1.98 6.32 3.96 7 6 C4.36 5.67 1.72 5.34 -1 5 C-0.67 3.35 -0.34 1.7 0 0 Z " fill="#353873" transform="translate(175,103)"/>
<path d="M0 0 C3.3 0 6.6 0 10 0 C10 0.33 10 0.66 10 1 C7.69 1.33 5.38 1.66 3 2 C2.855625 2.721875 2.71125 3.44375 2.5625 4.1875 C2.04166667 6.79166667 1.52083333 9.39583333 1 12 C0.67 12 0.34 12 0 12 C0 8.04 0 4.08 0 0 Z " fill="#565988" transform="translate(18,100)"/>
<path d="M0 0 C0.33 0 0.66 0 1 0 C1.33 3.96 1.66 7.92 2 12 C0.35 12.66 -1.3 13.32 -3 14 C-2.5359375 12.7625 -2.5359375 12.7625 -2.0625 11.5 C-0.88122417 7.60873845 -0.41775832 4.03833047 0 0 Z " fill="#C2C5D5" transform="translate(156,80)"/>
<path d="M0 0 C0.99 0 1.98 0 3 0 C3 0.99 3 1.98 3 3 C2.34 3 1.68 3 1 3 C1 8.61 1 14.22 1 20 C0.67 20 0.34 20 0 20 C0 13.4 0 6.8 0 0 Z " fill="#D2D5E9" transform="translate(137,99)"/>
<path d="M0 0 C0.99 0.66 1.98 1.32 3 2 C2.34 2 1.68 2 1 2 C1 5.3 1 8.6 1 12 C0.01 12 -0.98 12 -2 12 C-1.85904936 10.3745692 -1.71207913 8.74965949 -1.5625 7.125 C-1.48128906 6.22007813 -1.40007812 5.31515625 -1.31640625 4.3828125 C-1 2 -1 2 0 0 Z " fill="#444679" transform="translate(171,70)"/>
<path d="M0 0 C0.33 0.66 0.66 1.32 1 2 C3.64 1.67 6.28 1.34 9 1 C8.67 1.99 8.34 2.98 8 4 C5.36 4 2.72 4 0 4 C0 2.68 0 1.36 0 0 Z " fill="#404484" transform="translate(162,114)"/>
<path d="M0 0 C-0.33 0.99 -0.66 1.98 -1 3 C-7.93 2.505 -7.93 2.505 -15 2 C-15 1.67 -15 1.34 -15 1 C-13.06263299 0.83179449 -11.12510094 0.66548905 -9.1875 0.5 C-7.56908203 0.36078125 -7.56908203 0.36078125 -5.91796875 0.21875 C-3 0 -3 0 0 0 Z " fill="#A6A8C2" transform="translate(78,118)"/>
<path d="M0 0 C0.66 0.33 1.32 0.66 2 1 C2.59355614 3.64860427 2.74209269 6.29197322 3 9 C2.67 8.34 2.34 7.68 2 7 C0.02 7.99 0.02 7.99 -2 9 C-1.34 6.03 -0.68 3.06 0 0 Z " fill="#464B7C" transform="translate(189,105)"/>
<path d="M0 0 C0.66 0.33 1.32 0.66 2 1 C2.4140625 3.28515625 2.4140625 3.28515625 2.625 6.0625 C2.69976562 6.98160156 2.77453125 7.90070313 2.8515625 8.84765625 C2.92503906 9.91306641 2.92503906 9.91306641 3 11 C-0.10877662 8.20042965 -0.64288953 6.19604804 -1 2 C-0.67 1.34 -0.34 0.68 0 0 Z " fill="#44497D" transform="translate(173,87)"/>
<path d="M0 0 C2.3125 1.9375 2.3125 1.9375 4 4 C3.01 5.485 3.01 5.485 2 7 C1.01 6.34 0.02 5.68 -1 5 C-0.67 4.01 -0.34 3.02 0 2 C-1.65 2 -3.3 2 -5 2 C-5 1.67 -5 1.34 -5 1 C-2.75 0.25 -2.75 0.25 0 0 Z " fill="#484E8C" transform="translate(180,101)"/>
<path d="M0 0 C1.43861294 0.08746284 2.87597508 0.19565348 4.3125 0.3125 C5.11300781 0.37050781 5.91351563 0.42851563 6.73828125 0.48828125 C9.36272334 1.08206694 10.30820672 1.95780294 12 4 C7.80530429 3.40075776 3.99000166 2.42500059 0 1 C0 0.67 0 0.34 0 0 Z " fill="#3D416E" transform="translate(141,70)"/>
<path d="M0 0 C3.3 0 6.6 0 10 0 C9.67 0.66 9.34 1.32 9 2 C2.57142857 3.28571429 2.57142857 3.28571429 0 2 C0 1.34 0 0.68 0 0 Z " fill="#383B69" transform="translate(73,69)"/>
<path d="M0 0 C-0.969375 0.45375 -1.93875 0.9075 -2.9375 1.375 C-6.07079582 2.65786221 -6.07079582 2.65786221 -7 5 C-7.99 4.67 -8.98 4.34 -10 4 C-4.75 -1.425 -4.75 -1.425 0 0 Z " fill="#CAC8CB" transform="translate(27,1)"/>
<path d="M0 0 C0.66 0 1.32 0 2 0 C2.33 1.98 2.66 3.96 3 6 C2.01 6 1.02 6 0 6 C-0.38218767 4.34385343 -0.71395102 2.67542976 -1 1 C-0.67 0.67 -0.34 0.34 0 0 Z " fill="#CED2D2" transform="translate(89,96)"/>
<path d="M0 0 C0.33 0 0.66 0 1 0 C1.33 2.97 1.66 5.94 2 9 C1.01 9 0.02 9 -1 9 C-0.67 6.03 -0.34 3.06 0 0 Z " fill="#B1B4D8" transform="translate(177,84)"/>
</svg>
