<!DOCTYPE svg PUBLIC "-//W3C//DTD SVG 1.1//EN" "http://www.w3.org/Graphics/SVG/1.1/DTD/svg11.dtd">
<!-- Uploaded to: SVG Repo, www.svgrepo.com, Transformed by: SVG Repo Mixer Tools -->
<svg width="800px" height="800px" viewBox="-6.4 -6.4 76.80 76.80" xmlns="http://www.w3.org/2000/svg" xmlns:xlink="http://www.w3.org/1999/xlink" aria-hidden="true" role="img" class="iconify iconify--emojione" preserveAspectRatio="xMidYMid meet" fill="#3c407d">
<g id="SVGRepo_bgCarrier" stroke-width="0" transform="translate(6.079999999999998,6.079999999999998), scale(0.81)">
<rect x="-6.4" y="-6.4" width="76.80" height="76.80" rx="17.663999999999998" fill="#3c407d" strokewidth="0"/>
</g>
<g id="SVGRepo_tracerCarrier" stroke-linecap="round" stroke-linejoin="round"/>
<g id="SVGRepo_iconCarrier">
<circle cx="32" cy="32" r="30" fill="#3c407d"/>
<path d="M28.6 35.2v.7c0 2.2.3 3.8.7 4.7c.4.9 1.3 1.4 2.7 1.4c1.3 0 2.2-.5 2.7-1.5c.3-.6.4-1.6.4-3V17.1h6.1v20.2c0 2.5-.4 4.4-1.3 5.9c-1.4 2.4-4 3.7-7.6 3.7s-6.2-1-7.4-3c-1.3-2-1.9-4.7-1.9-8.1v-.7h5.6z" fill="#ada38c"/>
</g>
</svg>